<svg width="16" height="17" viewBox="0 0 16 17" fill="none" xmlns="http://www.w3.org/2000/svg">
<g id="Cohete">
<path id="Vector" fill-rule="evenodd" clip-rule="evenodd" d="M1.98125 6.37074L4.57366 5.45577C4.03842 6.17639 3.5786 6.95032 3.20156 7.76541L1.98125 6.37074ZM0.17996 6.52098L2.58174 9.26585L2.23385 10.1356C2.12581 10.4057 2.18913 10.7142 2.39485 10.92L2.62293 11.148C1.38432 12.5447 0.700163 14.0054 0.0373425 15.9939C-0.0497709 16.2552 0.0182443 16.5434 0.21303 16.7381C0.407822 16.9329 0.695938 17.001 0.957276 16.9138C2.94574 16.251 4.40648 15.5669 5.80313 14.3282L6.0312 14.5563C6.23693 14.7621 6.54544 14.8253 6.81557 14.7173L7.68532 14.3694L10.4302 16.7712C10.6117 16.93 10.8602 16.9885 11.0935 16.9274C11.3268 16.8662 11.5146 16.6934 11.5949 16.4659L13.7666 10.3128C15.1983 8.61865 16 6.4601 16 4.20991V1.67844C16 1.27679 15.6744 0.951172 15.2727 0.951172H12.7412C10.4911 0.951172 8.33252 1.75281 6.63841 3.18455L0.48524 5.35626C0.257793 5.43654 0.0849352 5.62436 0.0237862 5.85768C-0.0373708 6.091 0.0211316 6.33946 0.17996 6.52098ZM1.95294 14.9982C2.4093 13.896 2.92147 13.0187 3.65351 12.1786L4.77254 13.2976C3.93247 14.0297 3.05516 14.5418 1.95294 14.9982ZM6.72059 13.1887L6.33246 12.8005L4.15064 10.6187L3.76247 10.2306L4.27876 8.93981C4.75249 7.75552 5.41773 6.6571 6.24786 5.68862L6.66721 5.19937C8.18706 3.42621 10.4058 2.40571 12.7412 2.40571H14.5455V4.20991C14.5455 6.54531 13.5249 8.7641 11.7518 10.284L11.2626 10.7033C10.294 11.5334 9.19564 12.1986 8.01135 12.6724L6.72059 13.1887ZM10.5804 14.9699L9.18575 13.7496C10.0009 13.3726 10.7748 12.9127 11.4954 12.3775L10.5804 14.9699ZM10.1818 6.04207C10.1818 5.64041 10.5074 5.3148 10.9091 5.3148C11.3108 5.3148 11.6364 5.64041 11.6364 6.04207C11.6364 6.44373 11.3108 6.76934 10.9091 6.76934C10.5074 6.76934 10.1818 6.44373 10.1818 6.04207ZM10.9091 3.86026C9.70408 3.86026 8.72728 4.83709 8.72728 6.04207C8.72728 7.24705 9.70408 8.22389 10.9091 8.22389C12.1141 8.22389 13.0909 7.24705 13.0909 6.04207C13.0909 4.83709 12.1141 3.86026 10.9091 3.86026Z" fill="#FAFAFA"/>
</g>
</svg>
