<svg width="17" height="17" viewBox="0 0 17 17" fill="none" xmlns="http://www.w3.org/2000/svg">
<g id="Corazon">
<path id="Vector (Stroke)" d="M2.35873 2.59549C4.31798 0.934504 6.80854 1.3028 8.49958 2.76039C10.194 1.29607 12.6648 0.952398 14.6493 2.61059C16.8251 4.42876 17.0868 7.53209 15.411 9.70013L15.411 9.70015C14.7783 10.5187 13.5475 11.7438 12.3698 12.8614C11.1768 13.9935 9.98667 15.0632 9.39982 15.5857L9.39971 15.5858C9.34387 15.6355 9.26752 15.7043 9.19409 15.7599C9.11375 15.8207 8.99697 15.8977 8.84107 15.947L8.82586 15.9517L8.82581 15.9517C8.61082 16.0161 8.3798 16.0161 8.16454 15.9517V15.9517C8.00111 15.9027 7.87937 15.8228 7.79636 15.7599C7.72281 15.7043 7.64645 15.6355 7.59051 15.5857V15.5856C7.00364 15.0631 5.81357 13.9935 4.62057 12.8614C3.46128 11.7613 2.25055 10.5569 1.6095 9.73883L1.5794 9.70015C-0.103521 7.52294 0.20692 4.44376 2.33276 2.61766L2.35873 2.59549ZM7.893 4.42285C6.68191 2.99938 4.79375 2.65425 3.40296 3.81838L3.37022 3.84615C1.88877 5.11873 1.69136 7.22035 2.84126 8.70799L2.86723 8.74135C3.42184 9.44869 4.54485 10.5738 5.71698 11.6861C6.79617 12.7102 7.87582 13.6851 8.4952 14.2383C9.11458 13.6851 10.1942 12.7102 11.2734 11.6861C12.4641 10.5562 13.6042 9.41296 14.1491 8.70797C15.3061 7.21116 15.1219 5.1011 13.6285 3.8532C12.1961 2.65633 10.3221 2.995 9.10725 4.42285C8.95527 4.60149 8.73351 4.70426 8.50012 4.70426C8.26673 4.70426 8.04498 4.60149 7.893 4.42285Z" fill="#FAFAFA"/>
</g>
</svg>
