<svg width="12" height="12" viewBox="0 0 12 12" fill="none" xmlns="http://www.w3.org/2000/svg">
<g id="Dev">
<rect id="Rectangle 19" y="0.75" width="12" height="10.5" rx="4" fill="#FEF2F2"/>
<path id="Vector (Stroke)" d="M2.90569 3.89431C3.10157 3.69879 3.41134 3.70195 3.60355 3.90377C3.79577 4.10559 3.79877 4.43085 3.61256 4.63653L3.60355 4.64623L1.9571 6.37499L3.60355 8.10377L3.61256 8.11348C3.79877 8.31915 3.79576 8.64441 3.60355 8.84623C3.41134 9.04805 3.10157 9.05121 2.90569 8.85569L2.89644 8.84623L0.896446 6.74623C0.701186 6.5412 0.701184 6.20879 0.896446 6.00376L2.89644 3.90377L2.90569 3.89431Z" fill="#0A0A0A"/>
<path id="Vector (Stroke)_2" d="M8.39645 3.90377C8.58866 3.70195 8.89843 3.69879 9.09431 3.89431L9.10356 3.90377L11.1036 6.00376L11.1126 6.01347C11.2958 6.21588 11.2958 6.5341 11.1126 6.73652L11.1036 6.74623L9.10356 8.84623C8.90829 9.05126 8.59171 9.05126 8.39645 8.84623C8.20118 8.64121 8.20119 8.3088 8.39645 8.10377L10.0429 6.37499L8.39645 4.64623L8.38744 4.63653C8.20123 4.43085 8.20423 4.10559 8.39645 3.90377Z" fill="#0A0A0A"/>
<path id="Vector (Stroke)_3" d="M6.67874 1.86948C6.77221 1.60218 7.10165 1.44515 7.42229 1.5177C7.74802 1.5914 7.94132 1.87412 7.85405 2.14917L5.32552 10.1177L5.32124 10.1305C5.22778 10.3978 4.89835 10.5549 4.57771 10.4823C4.25198 10.4086 4.05868 10.1259 4.14596 9.85082L6.67447 1.88228L6.67874 1.86948Z" fill="#0A0A0A"/>
</g>
</svg>
