<svg width="16" height="17" viewBox="0 0 16 17" fill="none" xmlns="http://www.w3.org/2000/svg">
<g id="Diamante">
<path id="Vector" d="M15.875 6.42984L13.0059 3.1672C12.9133 3.06252 12.781 2.95117 12.6422 2.95117H3.35802C3.21917 2.95117 3.08693 3.06252 2.99403 3.16744L0.124935 6.45731C-0.0439796 6.64809 -0.0412906 6.93736 0.131046 7.12468L7.64199 15.2933C7.73439 15.394 7.86419 15.4512 7.99986 15.4512C8.13553 15.4512 8.26534 15.3876 8.35774 15.2869L15.8692 7.11058C16.0413 6.92301 16.0439 6.62038 15.875 6.42984ZM10.8426 6.91039L7.994 13.7972L4.98874 6.91039H10.8426ZM4.77289 6.41549L3.69316 3.94098H12.0709L11.0472 6.41549H4.77289ZM7.34107 13.4849L1.31662 6.91039H4.46488L7.34107 13.4849ZM11.3674 6.91039H14.6181C14.6411 6.91039 14.6618 6.90322 14.6829 6.89703L8.61979 13.526L11.3674 6.91039ZM14.5865 6.41549H11.573L12.5437 4.07782L14.5865 6.41549ZM3.30351 4.25475L4.24879 6.41549H1.42443L3.30351 4.25475Z" fill="#FAFAFA"/>
<path id="Vector_2" d="M7.78571 4.45117H5.21429C5.096 4.45117 5 4.56292 5 4.70117C5 4.83942 5.096 4.95117 5.21429 4.95117H7.78571C7.904 4.95117 8 4.83942 8 4.70117C8 4.56292 7.904 4.45117 7.78571 4.45117Z" fill="#FAFAFA"/>
<path id="Vector_3" d="M10.2857 4.45117H9.21429C9.096 4.45117 9 4.56292 9 4.70117C9 4.83942 9.096 4.95117 9.21429 4.95117H10.2857C10.404 4.95117 10.5 4.83942 10.5 4.70117C10.5 4.56292 10.404 4.45117 10.2857 4.45117Z" fill="#FAFAFA"/>
</g>
</svg>
