<svg width="32" height="32" viewBox="0 0 32 32" fill="none" xmlns="http://www.w3.org/2000/svg">
<path d="M27.6667 11.4286H18.3333V2.28571H4.33333V29.7143H27.6667V11.4286ZM26.7007 9.14286L20.6667 3.232V9.14286H26.7007ZM3.16667 0H20.6667L30 9.14286V30.8571C30 31.1602 29.8771 31.4509 29.6583 31.6653C29.4395 31.8796 29.1428 32 28.8333 32H3.16667C2.85725 32 2.5605 31.8796 2.34171 31.6653C2.12292 31.4509 2 31.1602 2 30.8571V1.14286C2 0.839753 2.12292 0.549062 2.34171 0.334735C2.5605 0.120408 2.85725 0 3.16667 0ZM9 16H23V18.2857H9V16ZM9 9.14286H14.8333V11.4286H9V9.14286ZM9 22.8571H23V25.1429H9V22.8571Z" fill="#FAFAFA"/>
</svg>
