<svg width="16" height="17" viewBox="0 0 16 17" fill="none" xmlns="http://www.w3.org/2000/svg">
<g id="Document">
<path id="Vector" d="M13.8333 6.21429H9.16667V1.64286H2.16667V15.3571H13.8333V6.21429ZM13.3503 5.07143L10.3333 2.116V5.07143H13.3503ZM1.58333 0.5H10.3333L15 5.07143V15.9286C15 16.0801 14.9385 16.2255 14.8291 16.3326C14.7197 16.4398 14.5714 16.5 14.4167 16.5H1.58333C1.42862 16.5 1.28025 16.4398 1.17085 16.3326C1.06146 16.2255 1 16.0801 1 15.9286V1.07143C1 0.919876 1.06146 0.774531 1.17085 0.667368C1.28025 0.560204 1.42862 0.5 1.58333 0.5ZM4.5 8.5H11.5V9.64286H4.5V8.5ZM4.5 5.07143H7.41667V6.21429H4.5V5.07143ZM4.5 11.9286H11.5V13.0714H4.5V11.9286Z" fill="#FAFAFA"/>
</g>
</svg>
