<svg width="16" height="17" viewBox="0 0 16 17" fill="none" xmlns="http://www.w3.org/2000/svg">
<g id="Ojo">
<path id="Vector (Stroke)" fill-rule="evenodd" clip-rule="evenodd" d="M7.99999 7.125C7.03352 7.125 6.25001 7.85251 6.25001 8.75C6.25001 9.64749 7.03352 10.375 7.99999 10.375C8.96653 10.375 9.74999 9.6475 9.74999 8.75C9.74999 7.8525 8.96653 7.125 7.99999 7.125ZM4.5 8.75C4.5 6.95503 6.06704 5.5 7.99999 5.5C9.93303 5.5 11.5 6.95504 11.5 8.75C11.5 10.545 9.93303 12 7.99999 12C6.06704 12 4.5 10.545 4.5 8.75Z" fill="#FAFAFA"/>
<path id="Vector (Stroke)_2" fill-rule="evenodd" clip-rule="evenodd" d="M0.0348705 8.5159C1.09835 5.03002 4.26118 2.5 8.00001 2.5C11.7388 2.5 14.9016 5.03005 15.9651 8.51589C16.0116 8.66829 16.0116 8.83171 15.9651 8.98411C14.9016 12.47 11.7388 15 8.00001 15C4.26118 15 1.09833 12.47 0.0348698 8.9841C-0.0116235 8.8317 -0.0116233 8.66829 0.0348705 8.5159ZM1.5587 8.75C2.49644 11.4817 5.0273 13.4375 8.00001 13.4375C10.9727 13.4375 13.5035 11.4817 14.4413 8.75C13.5035 6.01832 10.9727 4.0625 8.00001 4.0625C5.0273 4.0625 2.49645 6.0183 1.5587 8.75Z" fill="#FAFAFA"/>
</g>
</svg>
