<svg width="16" height="16" viewBox="0 0 16 16" fill="none" xmlns="http://www.w3.org/2000/svg">
<g id="Flecha">
<g id="Vector">
<path d="M14.5 7.25L14.5767 7.25391C14.9549 7.2923 15.25 7.61167 15.25 8C15.25 8.38833 14.9549 8.7077 14.5767 8.74609L14.5 8.75H1C0.585786 8.75 0.25 8.41421 0.25 8C0.25 7.58579 0.585786 7.25 1 7.25H14.5Z" fill="#FAFAFA"/>
<path d="M13.9698 7.46957L14.0267 7.41812C14.3213 7.17794 14.7559 7.19501 15.0304 7.46957C15.305 7.74412 15.3221 8.17868 15.0819 8.47326L15.0304 8.53023L9.53033 14.0303C9.23744 14.3232 8.76256 14.3232 8.46967 14.0303C8.17678 13.7374 8.17678 13.2626 8.46967 12.9697L13.9698 7.46957Z" fill="#FAFAFA"/>
<path d="M15.0304 7.46957L15.0819 7.52674C15.3221 7.82132 15.305 8.25567 15.0304 8.53023C14.7559 8.80478 14.3213 8.82206 14.0267 8.58188L13.9698 8.53043L8.46967 3.03033C8.17678 2.73744 8.17678 2.26256 8.46967 1.96967C8.76256 1.67678 9.23744 1.67678 9.53033 1.96967L15.0304 7.46957Z" fill="#FAFAFA"/>
</g>
</g>
</svg>
