<svg width="17" height="17" viewBox="0 0 17 17" fill="none" xmlns="http://www.w3.org/2000/svg">
<g id="Mensaje" clip-path="url(#clip0_557_8)">
<path id="Rectangle 13" d="M1 1.94669C1 1.39688 1.44772 0.951172 2 0.951172H15C15.5523 0.951172 16 1.39688 16 1.94669V11.4041C16 11.9539 15.5523 12.3996 15 12.3996H8.64747L7.12412 15.4042C6.75791 16.1265 5.72501 16.1353 5.34647 15.4193L3.75 12.3996H2C1.44772 12.3996 1 11.9539 1 11.4041V1.94669Z" fill="#FAFAFA"/>
<path id="Rectangle 13 (Stroke)" fill-rule="evenodd" clip-rule="evenodd" d="M3.75 12.3996L5.34647 15.4193C5.72501 16.1353 6.75791 16.1265 7.12412 15.4042L8.64747 12.3996H15C15.5523 12.3996 16 11.9539 16 11.4041V1.94669C16 1.39688 15.5523 0.951172 15 0.951172H2C1.44772 0.951172 1 1.39688 1 1.94669V11.4041C1 11.9539 1.44772 12.3996 2 12.3996H3.75ZM6.70427 14.023L8.03205 11.4041H15V1.94669H2V11.4041H4.35373L5.70152 13.9534L5.84967 14.1304C6.05224 14.3724 6.42683 14.3686 6.62438 14.1225L6.70427 14.023Z" fill="#FAFAFA"/>
<path id="Line 20 (Stroke)" fill-rule="evenodd" clip-rule="evenodd" d="M3 5.45117C3 5.17503 3.22386 4.95117 3.5 4.95117H10C10.2761 4.95117 10.5 5.17503 10.5 5.45117C10.5 5.72731 10.2761 5.95117 10 5.95117H3.5C3.22386 5.95117 3 5.72731 3 5.45117Z" fill="#FAFAFA"/>
<path id="Line 21 (Stroke)" fill-rule="evenodd" clip-rule="evenodd" d="M3 7.95117C3 7.67503 3.22386 7.45117 3.5 7.45117H13.5C13.7761 7.45117 14 7.67503 14 7.95117C14 8.22731 13.7761 8.45117 13.5 8.45117H3.5C3.22386 8.45117 3 8.22731 3 7.95117Z" fill="#FAFAFA"/>
</g>
<defs>
<clipPath id="clip0_557_8">
<rect width="16" height="16" fill="white" transform="translate(0.5 0.451172)"/>
</clipPath>
</defs>
</svg>
