<svg width="16" height="17" viewBox="0 0 16 17" fill="none" xmlns="http://www.w3.org/2000/svg">
<g id="Grupo de personas">
<g id="Vector">
<path d="M13.1176 6.20146C13.1176 7.80045 11.9085 9.02848 10.5033 9.02848C9.09809 9.02848 7.88896 7.80045 7.88896 6.21421C7.88896 4.64721 9.10465 3.45117 10.5033 3.45117C11.9019 3.45117 13.1176 4.62164 13.1176 6.20146Z" fill="#FAFAFA"/>
<path d="M14.6078 14.9512H6.75006C5.72392 14.9512 5.75006 14.514 5.75006 13.9512C5.75006 12.301 7.11116 10.1733 10.4967 10.1733C13.8889 10.1733 16.0001 12.4503 16.0001 14.1005C16.0001 14.6634 15.6339 14.9512 14.6078 14.9512Z" fill="#FAFAFA"/>
</g>
<g id="Vector_2">
<path d="M1.0494 14.9512H5.58095C4.96082 13.9518 5.71807 11.9398 7 10.8411C6.33816 10.3513 5.48553 9.98728 4.37055 9.98728C1.68145 9.98728 0 12.1912 0 14.0246C0 14.6202 0.298124 14.9512 1.0494 14.9512Z" fill="#FAFAFA"/>
<path d="M4.37649 8.97464C5.48554 8.97464 6.45148 7.86272 6.45148 6.42652C6.45148 5.00351 5.47955 3.95117 4.37649 3.95117C3.26749 3.95117 2.28962 5.03002 2.29556 6.43976C2.29556 7.86272 3.2615 8.97464 4.37649 8.97464Z" fill="#FAFAFA"/>
</g>
</g>
</svg>
