<svg width="24" height="24" viewBox="0 0 24 24" fill="none" xmlns="http://www.w3.org/2000/svg">
<path d="M23.25 20.2875C22.8 20.2875 22.5 19.9875 22.5 19.5375V9.78748C22.5 9.33748 22.8 9.03748 23.25 9.03748C23.7 9.03748 24 9.33748 24 9.78748V19.5375C24 19.9875 23.7 20.2875 23.25 20.2875Z" fill="#FAFAFA"/>
<path d="M12 16.5375C11.85 16.5375 11.775 16.5375 11.625 16.4625L0.375 10.4625C0.15 10.3125 0 10.0875 0 9.7875C0 9.4875 0.15 9.2625 0.375 9.1125L11.625 3.1125C11.85 2.9625 12.075 2.9625 12.3 3.1125L23.55 9.1125C23.775 9.2625 23.925 9.4875 23.925 9.7875C23.925 10.0875 23.775 10.3125 23.55 10.4625L12.3 16.4625C12.225 16.5375 12.15 16.5375 12 16.5375Z" fill="#FAFAFA"/>
<path d="M13.5 16.875C13.2 17.1023 12.375 17.25 12 17.25C11.625 17.25 10.8 17.1023 10.5 16.875L4.5 13.5V16.4545C4.5 18.803 8.175 21 12 21C15.825 21 19.5 18.803 19.5 16.4545V13.5L13.5 16.875Z" fill="#FAFAFA"/>
</svg>
