<svg width="16" height="17" viewBox="0 0 16 17" fill="none" xmlns="http://www.w3.org/2000/svg">
<g id="Astro" clip-path="url(#clip0_552_343)">
<path id="Vector" d="M5.77202 14.0996C5.05193 13.4536 4.82936 12.0711 5.13049 11.0762C5.65418 11.7093 6.38736 11.9031 7.14671 12.0194C8.31194 12.1874 9.45097 12.1227 10.5376 11.6059L10.9042 11.3863C11.0454 11.86 11.0302 12.3657 10.8607 12.8303C10.6912 13.2949 10.3763 13.6942 9.96157 13.9704L9.24149 14.4614C8.50832 14.9524 8.29884 15.5209 8.58688 16.3607L8.61306 16.4512C8.25481 16.3061 7.95232 16.0528 7.74896 15.7276C7.52893 15.3975 7.41068 15.0115 7.40856 14.6164C7.40856 14.4226 7.40856 14.2288 7.38238 14.035C7.31692 13.5569 7.09435 13.3502 6.6623 13.3373C6.23025 13.3244 5.88985 13.5957 5.7982 14.0092L5.77202 14.0996Z" fill="url(#paint0_linear_552_343)"/>
<path id="Vector_2" d="M1.625 10.8262C1.625 10.8262 3.78269 9.78477 5.94038 9.78477L7.56192 4.79904C7.62731 4.53869 7.79731 4.38248 7.99346 4.38248C8.20269 4.38248 8.38577 4.5517 8.43808 4.79904L10.0596 9.78477C12.6227 9.78477 14.375 10.8262 14.375 10.8262L10.7135 0.932822C10.6088 0.633418 10.4258 0.451172 10.1904 0.451172H5.80962C5.57423 0.451172 5.40423 0.633418 5.28654 0.932822L1.625 10.8262Z" fill="#FAFAFA"/>
</g>
<defs>
<linearGradient id="paint0_linear_552_343" x1="8" y1="11.0762" x2="6.82321" y2="16.419" gradientUnits="userSpaceOnUse">
<stop stop-color="#F041FF"/>
<stop offset="1" stop-color="#D83333"/>
</linearGradient>
<clipPath id="clip0_552_343">
<rect width="16" height="16" fill="white" transform="translate(0 0.451172)"/>
</clipPath>
</defs>
</svg>
