<svg width="16" height="17" viewBox="0 0 16 17" fill="none" xmlns="http://www.w3.org/2000/svg">
<g id="Bootstrap" clip-path="url(#clip0_552_386)">
<path id="Rectangle 2" d="M0 2.45117C0 1.3466 0.895431 0.451172 2 0.451172H14C15.1046 0.451172 16 1.3466 16 2.45117V14.4512C16 15.5557 15.1046 16.4512 14 16.4512H2C0.895431 16.4512 0 15.5557 0 14.4512V2.45117Z" fill="url(#paint0_linear_552_386)"/>
<path id="Vector" d="M6.6348 7.52855V5.26271H8.62929C8.81924 5.26271 9.00241 5.27854 9.17879 5.3102C9.35517 5.34186 9.5112 5.39839 9.64688 5.4798C9.78256 5.5612 9.89111 5.67427 9.97251 5.81899C10.0539 5.96372 10.0946 6.14915 10.0946 6.37528C10.0946 6.78232 9.97252 7.07629 9.72829 7.25719C9.48407 7.4381 9.17201 7.52855 8.7921 7.52855H6.6348ZM4.50464 3.60742V13.2949H9.19914C9.63332 13.2949 10.0562 13.2407 10.4677 13.1321C10.8793 13.0236 11.2456 12.8562 11.5667 12.6301C11.8879 12.404 12.1434 12.1123 12.3333 11.755C12.5233 11.3977 12.6183 10.9748 12.6183 10.4864C12.6183 9.88032 12.4713 9.36249 12.1773 8.93283C11.8833 8.50318 11.4379 8.20243 10.8409 8.03057C11.275 7.82252 11.6029 7.55569 11.8245 7.23006C12.0461 6.90443 12.1569 6.49739 12.1569 6.00894C12.1569 5.55668 12.0823 5.17678 11.9331 4.86924C11.7838 4.5617 11.5735 4.31522 11.3022 4.12979C11.0308 3.94436 10.7052 3.81094 10.3253 3.72953C9.94538 3.64813 9.52477 3.60742 9.06346 3.60742H4.50464ZM6.6348 11.6396V8.98032H8.95492C9.41623 8.98032 9.78708 9.0866 10.0675 9.29917C10.3479 9.51173 10.4881 9.86676 10.4881 10.3642C10.4881 10.6175 10.4451 10.8256 10.3592 10.9884C10.2733 11.1512 10.1579 11.2801 10.0132 11.3751C9.86849 11.47 9.70116 11.5379 9.5112 11.5786C9.32125 11.6193 9.12226 11.6396 8.91422 11.6396H6.6348Z" fill="white"/>
</g>
<defs>
<linearGradient id="paint0_linear_552_386" x1="0" y1="8.45117" x2="16" y2="8.45117" gradientUnits="userSpaceOnUse">
<stop stop-color="#8B13FD"/>
<stop offset="1" stop-color="#6E11F4"/>
</linearGradient>
<clipPath id="clip0_552_386">
<rect width="16" height="16" fill="white" transform="translate(0 0.451172)"/>
</clipPath>
</defs>
</svg>
