<svg width="16" height="17" viewBox="0 0 16 17" fill="none" xmlns="http://www.w3.org/2000/svg">
<g id="Figma" clip-path="url(#clip0_552_231)">
<path id="Vector" fill-rule="evenodd" clip-rule="evenodd" d="M8 8.45117C8 7.00145 9.17528 5.82617 10.625 5.82617C12.0747 5.82617 13.25 7.00145 13.25 8.45117C13.25 9.90089 12.0747 11.0762 10.625 11.0762C9.17528 11.0762 8 9.90089 8 8.45117Z" fill="#2DA8ED"/>
<path id="Vector_2" fill-rule="evenodd" clip-rule="evenodd" d="M2.625 13.7637C2.625 12.2794 3.82823 11.0762 5.3125 11.0762H8V13.7637C8 15.2479 6.79674 16.4512 5.3125 16.4512C3.82823 16.4512 2.625 15.2479 2.625 13.7637Z" fill="#31C059"/>
<path id="Vector_3" fill-rule="evenodd" clip-rule="evenodd" d="M8 0.451172V5.82617H10.625C12.0747 5.82617 13.25 4.62291 13.25 3.13867C13.25 1.65441 12.0747 0.451172 10.625 0.451172H8Z" fill="#FF6A6A"/>
<path id="Vector_4" fill-rule="evenodd" clip-rule="evenodd" d="M2.625 3.13867C2.625 4.62291 3.82823 5.82617 5.3125 5.82617H8V0.451172H5.3125C3.82823 0.451172 2.625 1.65441 2.625 3.13867Z" fill="#E44747"/>
<path id="Vector_5" fill-rule="evenodd" clip-rule="evenodd" d="M2.625 8.45117C2.625 9.90089 3.82823 11.0762 5.3125 11.0762H8V5.82617H5.3125C3.82823 5.82617 2.625 7.00145 2.625 8.45117Z" fill="#8A62E1"/>
</g>
<defs>
<clipPath id="clip0_552_231">
<rect width="16" height="16" fill="white" transform="translate(0 0.451172)"/>
</clipPath>
</defs>
</svg>
