<svg width="16" height="17" viewBox="0 0 16 17" fill="none" xmlns="http://www.w3.org/2000/svg">
<g id="Git" clip-path="url(#clip0_552_339)">
<path id="Vector" d="M0.334492 9.25872C-0.111497 8.81272 -0.111497 8.08964 0.334492 7.64364L7.19246 0.785664C7.63846 0.339675 8.36155 0.339675 8.80755 0.785664L15.6655 7.64364C16.1115 8.08964 16.1115 8.81272 15.6655 9.25872L8.80755 16.1167C8.36155 16.5627 7.63846 16.5627 7.19246 16.1167L0.334492 9.25872Z" fill="#F54D27"/>
<path id="Vector_2" d="M5.92273 2.20117L5.25 2.89562L6.98754 4.68921C6.91724 4.84487 6.87799 5.01847 6.87799 5.20154C6.87799 5.72129 7.19434 6.16476 7.63912 6.33795V10.7255C7.19434 10.8987 6.87799 11.3422 6.87799 11.8619C6.87799 12.5325 7.40464 13.0762 8.05428 13.0762C8.70393 13.0762 9.23057 12.5325 9.23057 11.8619C9.23057 11.3908 8.97057 10.9822 8.59056 10.781V6.34395L10.2515 8.05845C10.1846 8.21096 10.1474 8.38026 10.1474 8.55854C10.1474 9.22914 10.6741 9.77277 11.3237 9.77277C11.9734 9.77277 12.5 9.22914 12.5 8.55854C12.5 7.88794 11.9734 7.34431 11.3237 7.34431C11.1974 7.34431 11.0759 7.36482 10.9619 7.40282L9.17804 5.56147C9.21219 5.44776 9.23057 5.32685 9.23057 5.20154C9.23057 4.53093 8.70393 3.9873 8.05428 3.9873C7.93289 3.9873 7.81581 4.00629 7.7056 4.04154L5.92273 2.20117Z" fill="white"/>
</g>
<defs>
<clipPath id="clip0_552_339">
<rect width="16" height="16" fill="white" transform="translate(0 0.451172)"/>
</clipPath>
</defs>
</svg>
