<svg width="16" height="17" viewBox="0 0 16 17" fill="none" xmlns="http://www.w3.org/2000/svg">
<g id="Google Analytics" clip-path="url(#clip0_552_119)">
<path id="Vector" d="M11 2.36026V14.3603C11 15.703 11.9401 16.4512 12.9375 16.4512C13.8601 16.4512 14.875 15.8148 14.875 14.3603V2.45117C14.875 1.22026 13.9524 0.451172 12.9375 0.451172C11.9226 0.451172 11 1.29935 11 2.36026Z" fill="#F9AB00"/>
<path id="Vector_2" d="M6 8.47869V14.3675C6 15.7056 6.94015 16.4512 7.9375 16.4512C8.86012 16.4512 9.875 15.817 9.875 14.3675V8.56929C9.875 7.34262 8.95238 6.57617 7.9375 6.57617C6.92262 6.57617 6 7.42144 6 8.47869Z" fill="#E37400"/>
<path id="Vector_3" d="M2.9375 16.4512C4.00755 16.4512 4.875 15.5837 4.875 14.5137C4.875 13.4436 4.00755 12.5762 2.9375 12.5762C1.86745 12.5762 1 13.4436 1 14.5137C1 15.5837 1.86745 16.4512 2.9375 16.4512Z" fill="#E37400"/>
</g>
<defs>
<clipPath id="clip0_552_119">
<rect width="16" height="16" fill="white" transform="translate(0 0.451172)"/>
</clipPath>
</defs>
</svg>
