<svg width="16" height="17" viewBox="0 0 16 17" fill="none" xmlns="http://www.w3.org/2000/svg">
<g id="Illustrator" clip-path="url(#clip0_552_147)">
<path id="Vector" d="M2.83333 0.576172H13.1667C14.7333 0.576172 16 1.84487 16 3.41405V13.3633C16 14.9325 14.7333 16.2012 13.1667 16.2012H2.83333C1.26667 16.2012 0 14.9325 0 13.3633V3.41405C0 1.84487 1.26667 0.576172 2.83333 0.576172Z" fill="#330000"/>
<path id="Vector_2" d="M7.77624 9.92182H5.32193L4.82051 11.4824C4.80731 11.5421 4.75453 11.582 4.69515 11.5753H3.4548C3.38223 11.5753 3.36244 11.5355 3.38223 11.4558L5.50666 5.29999C5.52645 5.23359 5.54624 5.16054 5.57263 5.08085C5.59902 4.9414 5.61222 4.79531 5.61222 4.64922C5.60562 4.61602 5.63201 4.58281 5.665 4.57617C5.6716 4.57617 5.6782 4.57617 5.68479 4.57617H7.37378C7.42656 4.57617 7.45295 4.59609 7.45955 4.6293L9.86768 11.4691C9.88747 11.5421 9.86768 11.5753 9.8017 11.5753H8.4228C8.37662 11.582 8.33043 11.5488 8.31724 11.5023L7.77624 9.92182ZM5.70459 8.57379H7.38038C7.34079 8.43434 7.28801 8.26833 7.22863 8.09567C7.16926 7.91638 7.10988 7.7238 7.0505 7.52458C6.98452 7.31872 6.92514 7.11951 6.85917 6.91365C6.79319 6.70779 6.73381 6.51522 6.68103 6.32264C6.62825 6.1367 6.58207 5.96405 6.53589 5.80468H6.52269C6.46331 6.09022 6.39074 6.37576 6.29837 6.66131C6.19941 6.98006 6.10044 7.31208 5.99488 7.64411C5.90251 7.98278 5.80355 8.29489 5.70459 8.57379Z" fill="#FF9A00"/>
<path id="Vector_3" d="M11.3027 5.73476C11.0875 5.74137 10.8787 5.65547 10.7222 5.50348C10.5721 5.33829 10.4939 5.12022 10.5004 4.89556C10.4939 4.67089 10.5787 4.45943 10.7352 4.30745C10.8918 4.15547 11.1005 4.07617 11.3158 4.07617C11.5702 4.07617 11.7659 4.15547 11.9094 4.30745C12.0529 4.46604 12.1311 4.67749 12.1246 4.89556C12.1311 5.12022 12.0529 5.33829 11.8963 5.50348C11.7463 5.66207 11.5245 5.74798 11.3027 5.73476ZM10.5721 11.4704V6.38234C10.5721 6.31626 10.5982 6.28983 10.6569 6.28983H11.9485C12.0072 6.28983 12.0333 6.32287 12.0333 6.38234V11.4704C12.0333 11.5431 12.0072 11.5762 11.9485 11.5762H10.67C10.6047 11.5762 10.5721 11.5365 10.5721 11.4704Z" fill="#FF9A00"/>
</g>
<defs>
<clipPath id="clip0_552_147">
<rect width="16" height="16" fill="white" transform="translate(0 0.451172)"/>
</clipPath>
</defs>
</svg>
