<svg width="16" height="17" viewBox="0 0 16 17" fill="none" xmlns="http://www.w3.org/2000/svg">
<g id="Javascript" clip-path="url(#clip0_552_409)">
<path id="Vector" d="M0 0.451172H16V16.4512H0V0.451172Z" fill="#F7DF1E"/>
<path id="Vector_2" d="M4.18753 13.8312L5.44593 13.0927C5.6887 13.5101 5.90955 13.8632 6.43928 13.8632C6.94705 13.8632 7.26719 13.6706 7.26719 12.9214V7.82617H8.8125V12.9426C8.8125 14.4947 7.87431 15.2012 6.50552 15.2012C5.26933 15.2012 4.55175 14.5803 4.1875 13.8311" fill="black"/>
<path id="Vector_3" d="M9.4375 13.6624L10.6956 12.9523C11.0268 13.4796 11.4573 13.8669 12.2188 13.8669C12.859 13.8669 13.2673 13.5548 13.2673 13.1244C13.2673 12.6079 12.8479 12.425 12.1415 12.1238L11.7553 11.9623C10.6405 11.4996 9.90099 10.9186 9.90099 9.69188C9.90099 8.56204 10.7839 7.70117 12.1636 7.70117C13.146 7.70117 13.8523 8.03478 14.36 8.90638L13.1569 9.65957C12.892 9.19691 12.6051 9.01401 12.1637 9.01401C11.7111 9.01401 11.4242 9.29377 11.4242 9.65957C11.4242 10.1115 11.7111 10.2945 12.3733 10.5743L12.7596 10.7357C14.073 11.2845 14.8125 11.844 14.8125 13.1029C14.8125 14.4588 13.7198 15.2012 12.2519 15.2012C10.8171 15.2012 9.88995 14.5341 9.4375 13.6624Z" fill="black"/>
</g>
<defs>
<clipPath id="clip0_552_409">
<rect width="16" height="16" fill="white" transform="translate(0 0.451172)"/>
</clipPath>
</defs>
</svg>
