<svg width="16" height="17" viewBox="0 0 16 17" fill="none" xmlns="http://www.w3.org/2000/svg">
<g id="MySQL">
<path id="Vector" d="M3.83246 12.8395H3.21737C3.19562 11.7763 3.13572 10.7768 3.03778 9.84019H3.03231L2.09583 12.8395H1.62753L0.696628 9.84019H0.69128C0.622223 10.7394 0.578721 11.7392 0.560654 12.8395H0C0.0361329 11.5015 0.126941 10.2471 0.272067 9.07617H1.03442L1.9217 11.8415H1.92717L2.81991 9.07617H3.54934C3.70909 10.4477 3.80346 11.7022 3.83246 12.8395ZM6.5 10.0629C6.24957 11.4546 5.91914 12.4659 5.50908 13.0971C5.18959 13.583 4.83955 13.8262 4.45837 13.8262C4.35675 13.8262 4.23135 13.7948 4.08278 13.7324V13.3969C4.1554 13.4076 4.24062 13.4137 4.33856 13.4137C4.51661 13.4137 4.65972 13.3635 4.76883 13.263C4.89934 13.1405 4.96459 13.0029 4.96459 12.8506C4.96459 12.7462 4.91372 12.5327 4.81221 12.2094L4.13722 10.0628H4.74149L5.22596 11.6683C5.33483 12.0328 5.38024 12.2873 5.36205 12.4323C5.62699 11.7077 5.81205 10.9176 5.91748 10.0627H6.5V10.0629Z" fill="#5D87A1"/>
<path id="Vector_2" d="M14.75 12.8223H12.9862V9.13109H13.5795V12.3679H14.75V12.8223ZM12.5245 12.9114L11.8425 12.5766C11.9029 12.5271 11.9608 12.4737 12.0129 12.4117C12.3027 12.0729 12.4473 11.5719 12.4473 10.9082C12.4473 9.68705 11.9657 9.07617 11.0021 9.07617C10.5296 9.07617 10.161 9.23113 9.89736 9.54116C9.60771 9.88021 9.46312 10.3795 9.46312 11.0395C9.46312 11.6884 9.59127 12.1643 9.84768 12.4663C10.0823 12.7398 10.4359 12.8767 10.9087 12.8767C11.0851 12.8767 11.247 12.8552 11.3944 12.8119L12.2823 13.3262L12.5245 12.9114ZM10.3152 12.0836C10.1649 11.8432 10.0898 11.4571 10.0898 10.9248C10.0898 9.99541 10.3736 9.53018 10.9417 9.53018C11.2387 9.53018 11.4564 9.64145 11.5955 9.8635C11.7455 10.1043 11.821 10.4869 11.821 11.0118C11.821 11.9489 11.537 12.4174 10.9692 12.4174C10.6721 12.4176 10.4545 12.3066 10.3152 12.0836ZM9.20455 11.7992C9.20455 12.1122 9.08912 12.369 8.85851 12.5701C8.62765 12.7704 8.31809 12.8708 7.93017 12.8708C7.56733 12.8708 7.21552 12.7555 6.875 12.5261L7.03446 12.2091C7.32747 12.3551 7.59276 12.4277 7.83094 12.4277C8.05447 12.4277 8.22918 12.3784 8.35588 12.2806C8.48247 12.1825 8.55794 12.0448 8.55794 11.8708C8.55794 11.6515 8.40424 11.4641 8.12227 11.3071C7.86225 11.165 7.34223 10.868 7.34223 10.868C7.06038 10.6636 6.91928 10.4442 6.91928 10.0827C6.91928 9.78351 7.0245 9.542 7.23508 9.35827C7.4459 9.17383 7.71791 9.0819 8.05135 9.0819C8.39572 9.0819 8.70876 9.17371 8.99073 9.35541L8.84771 9.67248C8.60654 9.57053 8.36848 9.51956 8.13367 9.51956C7.94349 9.51956 7.79662 9.56504 7.69451 9.65637C7.59156 9.74734 7.52809 9.86374 7.52809 10.0065C7.52809 10.2247 7.68503 10.4146 7.97468 10.5747C8.23817 10.717 8.77116 11.0191 8.77116 11.0191C9.06021 11.2231 9.20455 11.4405 9.20455 11.7992Z" fill="#F8981D"/>
<path id="Vector_3" d="M15.4868 7.88181C15.1329 7.87283 14.859 7.90842 14.6291 8.0056C14.5627 8.03209 14.4571 8.03209 14.4479 8.11592C14.4838 8.15139 14.4879 8.20861 14.519 8.25756C14.572 8.34588 14.6645 8.46471 14.7488 8.52667C14.8415 8.59761 14.9345 8.66784 15.032 8.72968C15.2039 8.83597 15.3989 8.89781 15.5664 9.00374C15.664 9.06534 15.7611 9.14504 15.8588 9.21137C15.9069 9.24672 15.9376 9.30406 16 9.32617V9.31269C15.9688 9.27297 15.9599 9.2155 15.9292 9.17128L15.7965 9.04335C15.6682 8.8712 15.5088 8.72093 15.3368 8.59749C15.1953 8.50006 14.8857 8.36764 14.8284 8.20471L14.8194 8.19573C14.9166 8.18662 15.032 8.15139 15.1244 8.12431C15.2748 8.0847 15.412 8.09369 15.5663 8.05408C15.6373 8.03635 15.7077 8.01412 15.7789 7.99224V7.9524C15.699 7.87283 15.6419 7.76712 15.5578 7.69193C15.3327 7.49767 15.0847 7.30766 14.8284 7.14864C14.6911 7.06008 14.5145 7.00309 14.3684 6.92777C14.3157 6.90117 14.227 6.88805 14.196 6.84383C14.1167 6.74664 14.0721 6.61871 14.0146 6.50366C13.8867 6.26093 13.7626 5.99159 13.6523 5.7349C13.5726 5.56275 13.524 5.39084 13.4268 5.23157C12.9712 4.48078 12.4764 4.02605 11.716 3.57971C11.5526 3.48678 11.3581 3.44717 11.1505 3.39846L10.8188 3.38096C10.748 3.34998 10.6771 3.26592 10.6153 3.22619C10.363 3.06728 9.7135 2.72286 9.52794 3.1776C9.40842 3.46502 9.70474 3.74761 9.80651 3.89339C9.88165 3.9946 9.97904 4.10976 10.0316 4.22468C10.0627 4.29976 10.0715 4.37945 10.1026 4.45879C10.1734 4.65317 10.2395 4.86942 10.3325 5.05079C10.381 5.14325 10.4339 5.24044 10.4959 5.32415C10.5314 5.3731 10.5932 5.39474 10.6067 5.47455C10.545 5.56251 10.5402 5.69529 10.5048 5.80572C10.3458 6.30479 10.4079 6.92304 10.6333 7.28981C10.7039 7.40024 10.8721 7.64333 11.0972 7.55016C11.2965 7.47071 11.2523 7.21899 11.3096 6.99824C11.3228 6.94492 11.3141 6.90992 11.3406 6.87492V6.88355C11.4023 7.00711 11.4645 7.12617 11.5217 7.25008C11.6588 7.46633 11.8976 7.69169 12.0966 7.84149C12.2025 7.92142 12.2864 8.0581 12.419 8.10693V8.09369H12.4103C12.3834 8.05408 12.3441 8.03635 12.3089 8.0056C12.2291 7.92603 12.1408 7.82884 12.0789 7.74064C11.8936 7.49317 11.7296 7.21922 11.584 6.93652C11.5128 6.79937 11.4514 6.64945 11.394 6.51253C11.3672 6.45968 11.3672 6.37999 11.3229 6.35339C11.2564 6.45046 11.1594 6.53452 11.1109 6.65347C11.0268 6.84371 11.018 7.0777 10.9868 7.32102L10.9694 7.32954C10.8286 7.29418 10.7796 7.14864 10.7261 7.02508C10.5937 6.71129 10.5714 6.2076 10.6863 5.84557C10.7171 5.75299 10.8502 5.46142 10.7971 5.37322C10.7705 5.28868 10.682 5.24056 10.6334 5.17399C10.5764 5.09028 10.5139 4.98434 10.4742 4.89141C10.3681 4.64418 10.3148 4.37023 10.2006 4.12312C10.1472 4.00796 10.0545 3.88878 9.97952 3.78272C9.89526 3.66354 9.8026 3.57959 9.73598 3.4383C9.71397 3.38971 9.68308 3.31025 9.71847 3.2574C9.7271 3.22193 9.74509 3.20869 9.78035 3.19982C9.83763 3.15147 10.0013 3.21295 10.0587 3.23955C10.2226 3.30576 10.3596 3.3676 10.4964 3.46029C10.5583 3.50463 10.6247 3.58858 10.7041 3.61069H10.7971C10.9383 3.64143 11.0974 3.6192 11.2303 3.65917C11.4645 3.73436 11.6767 3.84468 11.867 3.96374C12.446 4.33062 12.9235 4.85192 13.2458 5.47455C13.2987 5.57599 13.3212 5.66893 13.3695 5.77475C13.4626 5.99135 13.5778 6.21222 13.6702 6.42421C13.7631 6.63171 13.8516 6.84359 13.9843 7.01598C14.0504 7.10867 14.3162 7.15727 14.4354 7.20586C14.5235 7.24547 14.6608 7.28071 14.7403 7.3293C14.8907 7.42188 15.0405 7.52817 15.1819 7.62997C15.2524 7.68294 15.4736 7.79337 15.4868 7.88181ZM10.9774 4.04343C10.9164 4.0428 10.8556 4.05027 10.7965 4.06566V4.07453H10.805C10.8406 4.14511 10.9025 4.19406 10.9467 4.25566C10.9823 4.32648 11.0132 4.39672 11.0481 4.46742L11.0566 4.45867C11.119 4.41457 11.15 4.34387 11.15 4.23781C11.1231 4.20659 11.119 4.17609 11.0966 4.14511C11.0706 4.10089 11.0132 4.0789 10.9774 4.04343Z" fill="#5D87A1"/>
<path id="Vector_4" d="M15.9047 12.8262H16V12.4513H15.8571L15.7406 12.7071L15.614 12.4513H15.4764V12.8262H15.5663V12.5409H15.5714L15.704 12.8262H15.7726L15.9047 12.5409V12.8262ZM15.1375 12.8262H15.2382V12.5148H15.3702V12.4512H15V12.5148H15.1372L15.1375 12.8262Z" fill="#F8981D"/>
</g>
</svg>
