<svg width="16" height="17" viewBox="0 0 16 17" fill="none" xmlns="http://www.w3.org/2000/svg">
<path id="Vector" d="M7.47605 0.455478C7.44164 0.458605 7.33216 0.469552 7.23363 0.477371C4.96109 0.682228 2.83245 1.90825 1.48426 3.79262C0.733529 4.84037 0.253372 6.02885 0.0719453 7.28771C0.00782014 7.72714 0 7.85693 0 8.45274C0 9.04854 0.00782014 9.17834 0.0719453 9.61777C0.506745 12.6218 2.64477 15.1458 5.54448 16.0809C6.06373 16.2483 6.61114 16.3624 7.23363 16.4312C7.47605 16.4578 8.52395 16.4578 8.76637 16.4312C9.84086 16.3124 10.7511 16.0465 11.6489 15.5883C11.7865 15.518 11.8131 15.4992 11.7943 15.4836C11.7818 15.4742 11.1953 14.6876 10.4915 13.7368L9.21212 12.0088L7.60899 9.63653C6.72688 8.33233 6.00117 7.26582 5.99492 7.26582C5.98866 7.26425 5.9824 8.31825 5.97928 9.60526C5.97458 11.8587 5.97302 11.9494 5.94487 12.0026C5.9042 12.0792 5.87292 12.1105 5.80723 12.1449C5.75718 12.1699 5.71339 12.1746 5.47722 12.1746H5.20665L5.1347 12.1292C5.08778 12.0995 5.05337 12.0604 5.02991 12.0151L4.99707 11.9447L5.0002 8.80928L5.00489 5.67231L5.05337 5.61132C5.0784 5.57848 5.13157 5.53626 5.16911 5.51593C5.23324 5.48465 5.25826 5.48152 5.52884 5.48152C5.8479 5.48152 5.90108 5.49403 5.98397 5.58473C6.00743 5.60975 6.87546 6.91709 7.91398 8.49183C8.95249 10.0666 10.3726 12.2168 11.0702 13.2724L12.337 15.1911L12.4012 15.1489C12.9689 14.7799 13.5695 14.2544 14.045 13.7071C15.0569 12.5452 15.7091 11.1284 15.9281 9.61777C15.9922 9.17834 16 9.04854 16 8.45274C16 7.85693 15.9922 7.72714 15.9281 7.28771C15.4933 4.28365 13.3552 1.75968 10.4555 0.824534C9.94409 0.658771 9.39981 0.544614 8.78983 0.475807C8.63969 0.460169 7.60587 0.442967 7.47605 0.455478ZM10.7511 5.29387C10.8262 5.3314 10.8872 5.40333 10.9091 5.4784C10.9216 5.51905 10.9247 6.38853 10.9216 8.34796L10.9169 11.1597L10.4211 10.3997L9.92375 9.63966V7.59578C9.92375 6.27437 9.93001 5.53156 9.93939 5.4956C9.96442 5.40802 10.0192 5.33922 10.0942 5.29856C10.1584 5.26572 10.1818 5.26259 10.4274 5.26259C10.6588 5.26259 10.6995 5.26572 10.7511 5.29387Z" fill="black"/>
</svg>
