<svg width="16" height="17" viewBox="0 0 16 17" fill="none" xmlns="http://www.w3.org/2000/svg">
<g id="NodeJS" clip-path="url(#clip0_552_347)">
<path id="Vector" d="M8 16.4512C7.77873 16.4512 7.5722 16.3924 7.38043 16.2895L5.41848 15.1282C5.12345 14.9666 5.27096 14.9078 5.35947 14.8784C5.75776 14.7461 5.83152 14.7167 6.24457 14.4815C6.28882 14.4521 6.34783 14.4668 6.39208 14.4962L7.89674 15.3928C7.95575 15.4222 8.0295 15.4222 8.07376 15.3928L13.9596 11.9973C14.0186 11.9679 14.0481 11.9091 14.0481 11.8356V5.05935C14.0481 4.98585 14.0186 4.92706 13.9596 4.89766L8.07376 1.51686C8.01475 1.48746 7.94099 1.48746 7.89674 1.51686L2.01087 4.89766C1.95186 4.92706 1.92236 5.00055 1.92236 5.05935V11.8356C1.92236 11.8944 1.95186 11.9679 2.01087 11.9973L3.61879 12.9234C4.48913 13.3644 5.03494 12.8499 5.03494 12.3354V5.64731C5.03494 5.55912 5.1087 5.47092 5.21196 5.47092H5.96429C6.0528 5.47092 6.1413 5.54442 6.1413 5.64731V12.3354C6.1413 13.4966 5.50699 14.1728 4.40062 14.1728C4.06134 14.1728 3.79581 14.1728 3.04348 13.8053L1.49457 12.9234C1.11102 12.7029 0.875 12.2913 0.875 11.8503V5.07405C0.875 4.63307 1.11102 4.2215 1.49457 4.00101L7.38043 0.605513C7.74922 0.399725 8.25078 0.399725 8.61957 0.605513L14.5054 4.00101C14.889 4.2215 15.125 4.63307 15.125 5.07405V11.8503C15.125 12.2913 14.889 12.7029 14.5054 12.9234L8.61957 16.3189C8.42779 16.4071 8.20652 16.4512 8 16.4512ZM9.81444 11.7915C7.23292 11.7915 6.70186 10.6156 6.70186 9.61608C6.70186 9.52788 6.77562 9.43969 6.87888 9.43969H7.64596C7.73447 9.43969 7.80823 9.49848 7.80823 9.58668C7.92624 10.3657 8.26553 10.7479 9.82919 10.7479C11.0683 10.7479 11.5994 10.4686 11.5994 9.80717C11.5994 9.42499 11.4519 9.14571 9.51941 8.95462C7.91149 8.79293 6.90839 8.44015 6.90839 7.16132C6.90839 5.97069 7.91149 5.26514 9.59317 5.26514C11.4814 5.26514 12.4107 5.9119 12.5287 7.32301C12.5287 7.36711 12.514 7.41121 12.4845 7.45531C12.455 7.4847 12.4107 7.5141 12.3665 7.5141H11.5994C11.5256 7.5141 11.4519 7.45531 11.4371 7.38181C11.2601 6.57336 10.8028 6.30877 9.59317 6.30877C8.23602 6.30877 8.07376 6.77915 8.07376 7.13192C8.07376 7.5582 8.26553 7.69049 10.0947 7.92568C11.9092 8.16086 12.7648 8.49894 12.7648 9.76307C12.75 11.0566 11.6879 11.7915 9.81444 11.7915Z" fill="#539E43"/>
</g>
<defs>
<clipPath id="clip0_552_347">
<rect width="16" height="16" fill="white" transform="translate(0 0.451172)"/>
</clipPath>
</defs>
</svg>
