<svg width="16" height="17" viewBox="0 0 16 17" fill="none" xmlns="http://www.w3.org/2000/svg">
<g id="Office 365" clip-path="url(#clip0_552_366)">
<path id="Vector" d="M6.5988 0.826172L6.51709 0.875336C6.38713 0.953543 6.26469 1.04099 6.15044 1.13653L6.38611 0.971627H8.38636L8.75 3.71071L6.93182 5.5194L5.11364 6.77658V8.22624C5.11364 9.23875 5.6456 10.1776 6.51633 10.7019L8.4304 11.8545L4.38636 14.2012H3.6064L2.15268 13.3258C1.28195 12.8015 0.75 11.8626 0.75 10.8501V5.9754C0.75 4.96257 1.28229 4.02343 2.15346 3.49924L6.51709 0.873556C6.54415 0.857289 6.57138 0.841491 6.5988 0.826172Z" fill="url(#paint0_radial_552_366)"/>
<path id="Vector_2" d="M6.5988 0.826172L6.51709 0.875336C6.38713 0.953543 6.26469 1.04099 6.15044 1.13653L6.38611 0.971627H8.38636L8.75 3.71071L6.93182 5.5194L5.11364 6.77658V8.22624C5.11364 9.23875 5.6456 10.1776 6.51633 10.7019L8.4304 11.8545L4.38636 14.2012H3.6064L2.15268 13.3258C1.28195 12.8015 0.75 11.8626 0.75 10.8501V5.9754C0.75 4.96257 1.28229 4.02343 2.15346 3.49924L6.51709 0.873556C6.54415 0.857289 6.57138 0.841491 6.5988 0.826172Z" fill="url(#paint1_linear_552_366)"/>
<path id="Vector_3" d="M10.9003 6.57617V8.21479C10.9003 9.2385 10.3701 10.1878 9.5021 10.7179L5.15238 13.3745C4.26261 13.9179 3.15546 13.9375 2.25 13.4333L6.49887 16.0283C7.42199 16.5921 8.57898 16.5921 9.5021 16.0283L13.8518 13.3717C14.7198 12.8416 15.25 11.8923 15.25 10.8686V9.68495L14.8876 9.13635L10.9003 6.57617Z" fill="url(#paint2_radial_552_366)"/>
<path id="Vector_4" d="M10.9003 6.57617V8.21479C10.9003 9.2385 10.3701 10.1878 9.5021 10.7179L5.15238 13.3745C4.26261 13.9179 3.15546 13.9375 2.25 13.4333L6.49887 16.0283C7.42199 16.5921 8.57898 16.5921 9.5021 16.0283L13.8518 13.3717C14.7198 12.8416 15.25 11.8923 15.25 10.8686V9.68495L14.8876 9.13635L10.9003 6.57617Z" fill="url(#paint3_linear_552_366)"/>
<path id="Vector_5" d="M13.8544 3.49775L9.51509 0.869349C8.62311 0.329052 7.51237 0.312315 6.60683 0.819135L6.52062 0.871351C5.65432 1.39609 5.125 2.33619 5.125 3.35008V6.78431L6.52062 5.93892C7.44113 5.38138 8.59458 5.38138 9.51509 5.93892L13.8544 8.56732C14.6936 9.07568 15.2166 9.97379 15.2484 10.9512C15.2495 10.9196 15.25 10.888 15.25 10.8563V5.97648C15.25 4.9626 14.7207 4.02248 13.8544 3.49775Z" fill="url(#paint4_radial_552_366)"/>
<path id="Vector_6" d="M13.8544 3.49775L9.51509 0.869349C8.62311 0.329052 7.51237 0.312315 6.60683 0.819135L6.52062 0.871351C5.65432 1.39609 5.125 2.33619 5.125 3.35008V6.78431L6.52062 5.93892C7.44113 5.38138 8.59458 5.38138 9.51509 5.93892L13.8544 8.56732C14.6936 9.07568 15.2166 9.97379 15.2484 10.9512C15.2495 10.9196 15.25 10.888 15.25 10.8563V5.97648C15.25 4.9626 14.7207 4.02248 13.8544 3.49775Z" fill="url(#paint5_linear_552_366)"/>
</g>
<defs>
<radialGradient id="paint0_radial_552_366" cx="0" cy="0" r="1" gradientUnits="userSpaceOnUse" gradientTransform="translate(5.62949 3.5799) rotate(110.627) scale(12.0774 21.1487)">
<stop offset="0.06441" stop-color="#AE7FE2"/>
<stop offset="1" stop-color="#0078D4"/>
</radialGradient>
<linearGradient id="paint1_linear_552_366" x1="5.66342" y1="13.4301" x2="3.94584" y2="10.4438" gradientUnits="userSpaceOnUse">
<stop stop-color="#114A8B"/>
<stop offset="1" stop-color="#0078D4" stop-opacity="0"/>
</linearGradient>
<radialGradient id="paint2_radial_552_366" cx="0" cy="0" r="1" gradientUnits="userSpaceOnUse" gradientTransform="translate(3.08166 12.9221) rotate(-8.4414) scale(11.2572 7.50016)">
<stop offset="0.133928" stop-color="#D59DFF"/>
<stop offset="1" stop-color="#5E438F"/>
</radialGradient>
<linearGradient id="paint3_linear_552_366" x1="13.9294" y1="8.90842" x2="12.0579" y2="11.568" gradientUnits="userSpaceOnUse">
<stop stop-color="#493474"/>
<stop offset="1" stop-color="#8C66BA" stop-opacity="0"/>
</linearGradient>
<radialGradient id="paint4_radial_552_366" cx="0" cy="0" r="1" gradientUnits="userSpaceOnUse" gradientTransform="translate(14.1851 9.32366) rotate(-165.753) scale(9.01302 15.1912)">
<stop offset="0.0584996" stop-color="#50E6FF"/>
<stop offset="1" stop-color="#436DCD"/>
</radialGradient>
<linearGradient id="paint5_linear_552_366" x1="5.47786" y1="0.833054" x2="8.19389" y2="0.833054" gradientUnits="userSpaceOnUse">
<stop stop-color="#2D3F80"/>
<stop offset="1" stop-color="#436DCD" stop-opacity="0"/>
</linearGradient>
<clipPath id="clip0_552_366">
<rect width="16" height="16" fill="white" transform="translate(0 0.451172)"/>
</clipPath>
</defs>
</svg>
