<svg width="16" height="17" viewBox="0 0 16 17" fill="none" xmlns="http://www.w3.org/2000/svg">
<g id="Oracle VM Virtual Box" clip-path="url(#clip0_552_414)">
<path id="Vector" d="M12.25 12.7012C12.25 10.6297 10.4484 8.95117 8.1875 8.95117C5.92663 8.95117 4.125 10.6297 4.125 12.7012C4.125 14.7726 5.92663 16.4512 8.1875 16.4512C10.4484 16.4512 12.25 14.7726 12.25 12.7012Z" fill="#47667F"/>
<path id="Vector_2" d="M12.125 12.5137C12.125 10.6159 10.371 9.07617 8.1875 9.07617C6.00398 9.07617 4.25 10.6159 4.25 12.5137C4.25 14.4115 6.00398 15.9512 8.1875 15.9512C10.371 15.9512 12.125 14.4115 12.125 12.5137Z" fill="#C5CAD5"/>
<path id="Vector_3" d="M1.25 3.70117L8 7.57617V15.3262L1.60526 10.7466L1.25 3.70117Z" fill="#C5CAD5"/>
<path id="Vector_4" d="M14.75 3.70117L8 7.57617V15.3262L14.3947 10.7466L14.75 3.70117Z" fill="#6D83B3"/>
<path id="Vector_5" d="M8.1875 15.9512C8.29489 15.9512 8.36648 15.9512 8.47386 15.9512L11.9818 13.4155C12.0534 13.1297 12.125 12.844 12.125 12.5583C12.125 12.5226 12.125 12.4869 12.125 12.4512L8.00852 15.3797L4.25 12.6655C4.2858 13.0226 4.35739 13.3797 4.50057 13.7369L7.47159 15.8797C7.72216 15.9155 7.93693 15.9512 8.1875 15.9512Z" fill="#5A6E91"/>
<path id="Vector_6" d="M1.25 3.65742L8 7.57617L14.75 3.65742L8 0.451172L1.25 3.65742Z" fill="#EAF4F8"/>
<path id="Vector_7" d="M3.61145 3.67385L8 6.19818L12.3886 3.67385L8 1.57617L3.61145 3.67385ZM13.6627 10.1091L13.875 5.52265L9.06175 8.33141V13.4512L13.6627 10.1091ZM2.33735 10.1091L2.125 5.52265L6.93825 8.33141V13.4512L2.33735 10.1091Z" fill="#34495E"/>
<path id="Vector_8" d="M10.0357 5.95117L8.92857 5.24321L9.53571 3.89807L7.89286 4.46445L8.5 3.15471L5.75 4.03967L6.82143 2.58834L6.14286 2.23436L6.28571 1.95117L7.35714 2.44675L6.67857 3.3671L9.10714 2.55294L8.57143 3.86268L10.2143 3.2963L9.39286 5.10161L10.25 5.66799L10.0357 5.95117Z" fill="#EAF4F8"/>
<path id="Vector_9" d="M9.72858 9.84858C9.76402 10.0314 9.55138 10.8722 9.55138 10.9818C9.55138 11.0915 9.4805 11.1646 9.37417 11.2012C9.33873 10.8722 9.30329 10.5797 9.26785 10.2507C9.26785 10.1776 9.33873 10.141 9.40961 10.1045C9.44506 10.3604 9.44506 10.6163 9.4805 10.8722C9.4805 10.8722 9.58682 10.3238 9.62226 10.0314C9.62226 9.95825 9.6577 9.88513 9.72858 9.84858ZM13.2727 8.02075C13.2372 8.13042 13.2372 8.3132 13.0955 8.38631C13.0955 8.27664 13.1309 8.20353 13.1664 8.13042C13.2372 7.98419 13.2372 7.80141 13.1664 7.65518C13.1309 7.58207 13.2018 7.54551 13.2372 7.50895C13.3081 7.4724 13.2727 7.58207 13.3436 7.58207C13.4144 7.50896 13.379 7.36273 13.4853 7.32617C13.5208 7.36273 13.4853 7.39928 13.4499 7.43584C13.379 7.61862 13.3436 7.80141 13.4499 7.98419C13.4853 8.0573 13.4499 8.09386 13.379 8.13042C13.379 8.13042 13.3436 8.16697 13.3081 8.09386C13.2727 8.09386 13.2727 8.0573 13.2727 8.02075ZM9.79946 10.799C9.79946 10.5797 9.83491 10.3604 9.83491 10.141C9.83491 10.0679 9.87035 9.9948 9.94123 9.9948C9.94123 10.2507 9.90579 10.5066 9.90579 10.7625C9.90579 10.8356 9.87035 10.8356 9.83491 10.8722C9.79946 10.8722 9.79946 10.799 9.79946 10.799ZM9.97667 9.62924C10.0476 9.66579 9.97667 9.77546 9.97667 9.81202C9.97667 9.84858 9.94123 9.88513 9.90579 9.88513C9.87035 9.88513 9.87035 9.84858 9.87035 9.81202C9.83491 9.77546 9.90579 9.59268 9.97667 9.62924ZM6.5389 10.6894C6.39714 10.5797 6.29081 10.5066 6.11361 10.3969C6.14905 10.5432 6.18449 10.6528 6.29081 10.7259C6.39714 10.799 6.46802 10.8722 6.57434 10.9453C6.60978 10.9818 6.64522 10.9818 6.60978 11.0549C6.57434 11.1281 6.5389 11.0915 6.50346 11.0549C6.18449 10.8722 6.00729 10.6163 5.97185 10.2507C5.97185 10.2141 5.97185 10.1776 5.97185 10.141C5.97185 10.0679 5.97185 9.95825 6.07817 9.92169C6.14905 9.88513 6.21993 9.95825 6.25537 9.9948C6.32626 10.0679 6.43258 10.1045 6.50346 10.1776C6.5389 10.2141 6.57434 10.2507 6.5389 10.2873C6.50346 10.3604 6.46802 10.2873 6.43258 10.2873C6.3617 10.2507 6.32626 10.2141 6.25537 10.1776C6.21993 10.141 6.11361 10.0679 6.11361 10.1776C6.11361 10.2873 6.11361 10.2873 6.18449 10.3238C6.29081 10.3969 6.39714 10.47 6.50346 10.5797C6.57434 10.5797 6.57434 10.5797 6.5389 10.6894ZM6.00729 10.5432C6.04273 10.5797 5.97185 10.6528 5.93641 10.6163C5.79464 10.5066 5.68832 10.4335 5.54655 10.3238C5.47567 10.2873 5.47567 10.2141 5.47567 10.1776C5.44023 9.92169 5.44023 9.66579 5.40479 9.4099C5.40479 9.37334 5.40479 9.37334 5.44023 9.37334C5.47567 9.4099 5.51111 9.44645 5.51111 9.48301C5.51111 9.62924 5.54655 9.77546 5.54655 9.92169C5.582 10.1776 5.61744 10.2507 5.79464 10.3238C5.86552 10.3969 5.90096 10.4335 6.00729 10.5432ZM10.083 10.6528C10.083 10.3969 10.1184 10.141 10.1184 9.88513C10.1184 9.81202 10.1184 9.81202 10.2248 9.81202C10.2602 9.81202 10.2956 9.66579 10.3665 9.62924C10.3665 9.70235 10.3665 9.77546 10.2956 9.84858C10.2248 9.92169 10.2248 9.9948 10.2248 10.0679C10.2248 10.2141 10.1893 10.3238 10.1893 10.47C10.2248 10.5797 10.1893 10.6163 10.083 10.6528ZM12.0322 9.08089C11.9968 9.08089 11.9614 9.08089 11.9968 9.04433C11.9968 8.86155 12.0322 8.3132 12.0677 8.20353C12.0677 8.16697 12.1031 8.09386 12.0322 8.09386C11.9968 8.09386 11.9614 8.13042 11.9614 8.16697C11.9259 8.27664 11.855 9.19056 11.9259 9.30023C11.9614 9.33678 12.0322 9.19056 12.0322 9.08089ZM10.7209 9.37334C10.7209 9.37334 10.65 9.44646 10.65 9.37334C10.65 9.30023 10.65 9.26367 10.65 9.19056C10.5792 9.19056 10.5792 9.22712 10.5792 9.30023C10.5792 9.4099 10.5792 9.48301 10.4728 9.59268C10.4728 9.59268 10.4374 9.66579 10.4728 9.66579C10.5437 9.81202 10.5083 9.92169 10.5083 10.0679C10.5083 10.141 10.4728 10.2873 10.5437 10.3238C10.65 10.3604 10.7209 10.1045 10.7209 10.1045C10.65 10.1045 10.65 9.9948 10.65 9.92169C10.65 9.77546 10.6146 9.62924 10.7564 9.51957C10.7564 9.48301 10.7209 9.44646 10.7209 9.37334ZM12.8474 7.76485C12.6702 7.91108 12.6347 8.16697 12.6347 8.42287C12.6347 8.53254 12.6347 8.71532 12.8119 8.64221C13.0955 8.49598 13.06 8.16697 13.06 7.87452C13.06 7.69174 12.9891 7.65518 12.8474 7.76485ZM12.8119 8.42287C12.7765 8.42287 12.7765 8.3132 12.7765 8.27664C12.7765 8.13042 12.8119 7.87452 12.9183 7.87452C12.9537 7.87452 12.9537 7.91108 12.9537 7.94763C12.9537 8.09386 12.9183 8.42287 12.8119 8.42287ZM4.0226 9.19056C3.95171 9.154 3.91627 9.11745 3.88083 9.04433C3.77451 8.86155 3.70363 8.67877 3.5973 8.49598C3.70363 8.5691 3.84539 8.64221 3.88083 8.60565C3.95171 8.53254 3.80995 8.38631 3.77451 8.34976C3.70363 8.3132 3.63275 8.24009 3.52642 8.16697C3.52642 8.27664 3.56186 8.64221 3.56186 8.78844C3.56186 8.82499 3.5973 8.86155 3.52642 8.86155C3.49098 8.86155 3.45554 8.82499 3.45554 8.78844C3.4201 8.64221 3.34922 7.94763 3.38466 7.91108C3.63275 8.09386 3.95171 8.24009 3.98715 8.64221C3.98715 8.78844 3.95171 8.86155 3.80995 8.86155C3.84539 8.97122 3.91627 9.04433 3.95171 9.154C4.0226 9.11745 4.09348 9.154 4.0226 9.19056ZM5.33391 9.9948C5.22759 9.92169 5.15671 9.84858 5.05038 9.77546C4.90862 9.62924 4.83774 9.44645 4.83774 9.26367C4.83774 9.154 4.90862 9.11745 5.01494 9.19056C5.08582 9.22712 5.15671 9.30023 5.22759 9.33678C5.26303 9.33678 5.26303 9.4099 5.29847 9.33678C5.33391 9.30023 5.33391 9.26367 5.26303 9.22712C5.15671 9.154 5.05038 9.08089 4.94406 9.00778C4.87318 8.97122 4.8023 8.93466 4.76685 9.04433C4.69597 9.30023 4.76686 9.51957 4.87318 9.73891C4.9795 9.92169 5.12126 9.9948 5.26303 10.141C5.26303 10.141 5.33391 10.2141 5.36935 10.141C5.40479 10.0679 5.40479 10.0314 5.33391 9.9948Z" fill="#ECF0F1"/>
<path id="Vector_10" d="M3.25293 7.96983C3.14537 7.75795 2.75098 7.54608 2.75098 7.51076C2.60756 7.40482 2.53585 7.44014 2.5 7.6167C2.5 7.75795 2.53585 7.86389 2.57171 8.00515C2.64342 8.28765 2.85854 8.4289 3.07366 8.57015C3.25293 8.67609 3.32464 8.64078 3.32464 8.46422C3.3605 8.28765 3.32464 8.04046 3.25293 7.96983ZM3.21708 8.39359C3.18123 8.4289 3.18123 8.46422 3.10952 8.4289C2.85854 8.35828 2.60756 8.04046 2.60756 7.75795C2.60756 7.72264 2.60756 7.65202 2.64342 7.6167C2.71512 7.58139 2.75098 7.6167 2.78683 7.65202C3.00196 7.79327 3.18123 7.93452 3.21708 8.21702C3.25293 8.32296 3.25293 8.35828 3.21708 8.39359ZM12.6108 8.4289C12.5391 8.32296 12.575 8.21702 12.6108 8.11108C12.6108 8.07577 12.6825 7.86389 12.5033 7.86389C12.3957 7.86389 12.2523 8.00515 12.2523 8.11108C12.2164 8.28765 12.1806 9.09985 12.1806 9.09985C12.2881 9.02922 12.3957 8.9586 12.4674 8.85266C12.575 8.74672 12.6467 8.57015 12.6108 8.4289ZM12.4674 8.60547C12.4674 8.71141 12.4316 8.78203 12.324 8.85266C12.324 8.74672 12.324 8.67609 12.324 8.60547C12.324 8.53484 12.3599 8.49953 12.4316 8.49953C12.4674 8.49953 12.4674 8.57015 12.4674 8.60547ZM12.4674 8.1464C12.4674 8.21702 12.4316 8.28765 12.324 8.35828C12.324 8.25234 12.324 8.18171 12.324 8.11108C12.324 8.07577 12.3599 8.04046 12.3957 8.04046C12.5033 8.07577 12.5033 8.11109 12.4674 8.1464ZM11.2484 9.02922C11.1408 9.02922 11.1408 9.13516 11.1408 9.17048C11.1408 9.17048 11.105 9.73549 11.105 9.7708C11.0691 9.80611 11.0691 9.84143 11.0333 9.84143C10.9974 9.84143 10.9974 9.7708 10.9974 9.73549C10.9974 9.59423 10.9974 9.48829 11.0333 9.34704C11.0333 9.31173 11.0691 9.20579 10.9974 9.2411C10.8898 9.2411 10.8898 9.34704 10.8898 9.41767C10.8898 9.59423 10.854 9.73549 10.854 9.91205C10.854 10.018 10.8898 10.1239 10.9974 10.0533C11.0333 10.018 11.105 9.94736 11.105 9.87674C11.2484 9.91205 11.2125 9.7708 11.2484 9.70017C11.2842 9.52361 11.2842 9.34704 11.2842 9.17048C11.2842 9.13516 11.2842 9.06454 11.2484 9.02922ZM4.50783 9.02922C4.47197 8.92329 4.40026 8.78203 4.36441 8.67609C4.36441 8.64078 4.32856 8.60547 4.2927 8.60547C4.25685 8.60547 4.25685 8.64078 4.22099 8.67609L4.00587 9.2411C4.00587 9.27642 4.07758 9.34704 4.14929 9.27642C4.18514 9.2411 4.25685 8.92329 4.32856 8.78203L4.50783 9.2411C4.40026 9.2411 4.2927 9.09985 4.25685 9.13516C4.18514 9.20579 4.40026 9.34704 4.50783 9.41767C4.57953 9.45298 4.61539 9.59423 4.65124 9.62955C4.65124 9.66486 4.72295 9.7708 4.79466 9.70017C4.6871 9.48829 4.61539 9.27642 4.50783 9.02922ZM11.5711 8.74672C11.3559 8.88797 11.3559 9.02922 11.4277 9.02922C11.4635 8.99391 11.4635 8.9586 11.4994 8.9586C11.5352 8.92329 11.5711 8.88797 11.6069 8.92329C11.6428 8.9586 11.6428 9.02923 11.6069 9.06454C11.5711 9.09985 11.5711 9.09985 11.5352 9.13516C11.4277 9.2411 11.3559 9.41767 11.3559 9.55892C11.3559 9.59423 11.3559 9.66486 11.3918 9.66486C11.4277 9.66486 11.4635 9.66486 11.4994 9.62955C11.5352 9.55892 11.6069 9.48829 11.7145 9.45298C11.7145 9.2411 11.7503 9.06454 11.7503 8.78203C11.7503 8.67609 11.6428 8.71141 11.5711 8.74672ZM11.5352 9.45298C11.4994 9.45298 11.4994 9.45298 11.4994 9.45298C11.4994 9.34704 11.5352 9.31173 11.6428 9.2411C11.6428 9.31173 11.6069 9.38236 11.5352 9.45298Z" fill="#ECF0F1"/>
</g>
<defs>
<clipPath id="clip0_552_414">
<rect width="16" height="16" fill="white" transform="translate(0 0.451172)"/>
</clipPath>
</defs>
</svg>
