<svg width="16" height="17" viewBox="0 0 16 17" fill="none" xmlns="http://www.w3.org/2000/svg">
<g id="Photoshop" clip-path="url(#clip0_552_393)">
<path id="Vector" d="M2.83333 0.701172H13.1667C14.7333 0.701172 16 1.95972 16 3.51634V13.386C16 14.9426 14.7333 16.2012 13.1667 16.2012H2.83333C1.26667 16.2012 0 14.9426 0 13.386V3.51634C0 1.95972 1.26667 0.701172 2.83333 0.701172Z" fill="#001E36"/>
<path id="Vector_2" d="M3.5 11.4933V4.93453C3.5 4.88991 3.52034 4.86442 3.56779 4.86442C3.68304 4.86442 3.7915 4.86442 3.94742 4.85804C4.11012 4.85167 4.2796 4.85167 4.46263 4.84529C4.64567 4.83892 4.84226 4.83892 5.05241 4.83255C5.26257 4.82617 5.46594 4.82617 5.66931 4.82617C6.2252 4.82617 6.68618 4.88991 7.06581 5.02376C7.40476 5.13212 7.7166 5.31059 7.97421 5.54643C8.19114 5.75039 8.36061 5.99898 8.46908 6.27306C8.57077 6.54076 8.625 6.81484 8.625 7.10167C8.625 7.64983 8.48942 8.10238 8.21825 8.45932C7.94709 8.81626 7.56746 9.08396 7.12682 9.23694C6.66584 9.39629 6.15741 9.45365 5.60152 9.45365C5.43882 9.45365 5.33036 9.45365 5.26257 9.44728C5.19478 9.4409 5.09987 9.4409 4.97106 9.4409V11.4869C4.97784 11.5316 4.94395 11.5698 4.89649 11.5762C4.88972 11.5762 4.88294 11.5762 4.86938 11.5762H3.58135C3.52712 11.5762 3.5 11.5507 3.5 11.4933ZM4.97784 6.09459V8.23623C5.07275 8.2426 5.16088 8.24898 5.24223 8.24898H5.60152C5.86591 8.24898 6.13029 8.21073 6.38112 8.13425C6.59805 8.07688 6.78786 7.95578 6.937 7.79643C7.07936 7.63708 7.14716 7.42036 7.14716 7.13991C7.15394 6.94232 7.0997 6.74473 6.99124 6.57263C6.87599 6.40691 6.71329 6.27943 6.5167 6.20932C6.26587 6.11371 5.99471 6.07546 5.71677 6.08184C5.54051 6.08184 5.38459 6.08184 5.25579 6.08821C5.12021 6.08184 5.0253 6.08821 4.97784 6.09459Z" fill="#31A8FF"/>
<path id="Vector_3" d="M12.809 7.78621C12.6025 7.68284 12.3823 7.61178 12.1483 7.56656C11.8936 7.51487 11.639 7.48257 11.3775 7.48257C11.2398 7.47611 11.0953 7.49549 10.9645 7.52779C10.8751 7.54718 10.7994 7.5924 10.7512 7.657C10.7168 7.70868 10.6961 7.77329 10.6961 7.83143C10.6961 7.88957 10.7237 7.94772 10.765 7.9994C10.8269 8.07046 10.9095 8.12861 10.999 8.17383C11.1572 8.25135 11.3224 8.32242 11.4876 8.38702C11.8592 8.5033 12.2171 8.66481 12.5474 8.85862C12.7746 8.99429 12.9604 9.17518 13.0911 9.39483C13.2013 9.60156 13.2563 9.82767 13.2494 10.0602C13.2563 10.3639 13.16 10.6675 12.981 10.9195C12.7883 11.1779 12.5199 11.3782 12.2102 11.4944C11.873 11.6301 11.4601 11.7012 10.9645 11.7012C10.648 11.7012 10.3383 11.6753 10.0286 11.6172C9.78769 11.5784 9.54681 11.5074 9.32658 11.4105C9.27841 11.3846 9.24399 11.3394 9.25088 11.2877V10.1636C9.25088 10.1442 9.25776 10.1184 9.27841 10.1055C9.29905 10.0925 9.3197 10.099 9.34035 10.1119C9.60875 10.2605 9.89092 10.3639 10.1937 10.4285C10.4553 10.4931 10.7305 10.5254 11.0058 10.5254C11.2674 10.5254 11.4532 10.4931 11.5771 10.4349C11.6872 10.3897 11.7629 10.2799 11.7629 10.1636C11.7629 10.0732 11.7078 9.98918 11.5977 9.9052C11.4876 9.82121 11.2605 9.72431 10.9232 9.60156C10.5723 9.48528 10.2488 9.33023 9.94598 9.13642C9.73263 8.99429 9.55369 8.80694 9.42293 8.58729C9.31282 8.38056 9.25776 8.15445 9.26464 7.92834C9.26464 7.65054 9.34723 7.38567 9.49863 7.14663C9.67069 6.88822 9.92533 6.68149 10.2213 6.55228C10.5447 6.39724 10.9508 6.32617 11.4394 6.32617C11.7216 6.32617 12.0106 6.34555 12.2928 6.38431C12.4993 6.41016 12.6989 6.46184 12.8847 6.5329C12.9122 6.53936 12.9397 6.5652 12.9535 6.59105C12.9604 6.61689 12.9673 6.64273 12.9673 6.66857V7.7216C12.9673 7.74745 12.9535 7.77329 12.9328 7.78621C12.8709 7.79913 12.8365 7.79913 12.809 7.78621Z" fill="#31A8FF"/>
</g>
<defs>
<clipPath id="clip0_552_393">
<rect width="16" height="16" fill="white" transform="translate(0 0.451172)"/>
</clipPath>
</defs>
</svg>
