<svg width="16" height="17" viewBox="0 0 16 17" fill="none" xmlns="http://www.w3.org/2000/svg">
<g id="Preact" clip-path="url(#clip0_552_363)">
<g id="Vector">
<path d="M8 0.451172L15 4.45117V12.4512L8 16.4512L1 12.4512V4.45117L8 0.451172Z" fill="#673AB8"/>
<path d="M12.6807 4.89797C12.5484 4.72767 12.3118 4.60821 11.9381 4.57838C11.5643 4.54855 11.0863 4.61242 10.5301 4.77582C9.41992 5.10203 8.05915 5.80701 6.72086 6.8211C5.38256 7.83519 4.34081 8.95072 3.73438 9.92529C3.43062 10.4135 3.24441 10.853 3.17686 11.2172C3.10931 11.5814 3.16492 11.838 3.29725 12.0083C3.42957 12.1786 3.6662 12.2981 4.03993 12.3279C4.41366 12.3577 4.89175 12.2939 5.44787 12.1305C6.55808 11.8043 7.91884 11.0993 9.25713 10.0852C10.5954 9.07109 11.6372 7.95557 12.2436 6.98101C12.5474 6.49283 12.7336 6.05332 12.8011 5.68911C12.8687 5.3249 12.8131 5.06827 12.6807 4.89797ZM13.1398 4.55011C13.4063 4.89307 13.4552 5.33412 13.3703 5.79205C13.2854 6.24999 13.0621 6.75713 12.7366 7.28016C12.0846 8.32798 10.989 9.49309 9.6094 10.5385C8.22974 11.584 6.80655 12.3274 5.61288 12.6782C5.01706 12.8532 4.46322 12.935 3.9933 12.8975C3.5234 12.86 3.10466 12.6991 2.83817 12.3562C2.57168 12.0132 2.52275 11.5722 2.60768 11.1142C2.69261 10.6563 2.91592 10.1491 3.24137 9.62612C3.89338 8.5783 4.98894 7.41318 6.3686 6.36775C7.74825 5.32232 9.17144 4.57885 10.3651 4.22812C10.9609 4.05305 11.5148 3.9713 11.9847 4.00881C12.4546 4.04632 12.8733 4.20714 13.1398 4.55011Z" fill="white"/>
<path d="M9.25719 6.81688C7.9189 5.80279 6.55814 5.0978 5.44793 4.77158C4.89181 4.60818 4.41371 4.54433 4.03999 4.57416C3.66625 4.604 3.42963 4.72345 3.2973 4.89375C3.16498 5.06405 3.10937 5.32068 3.17692 5.68489C3.24447 6.0491 3.43068 6.4886 3.73444 6.97677C4.34086 7.95133 5.38262 9.06687 6.72091 10.081C8.05921 11.0951 9.41998 11.8 10.5302 12.1262C11.0863 12.2896 11.5644 12.3535 11.9381 12.3237C12.3119 12.2938 12.5485 12.1744 12.6808 12.0041C12.8131 11.8338 12.8687 11.5772 12.8012 11.2129C12.7336 10.8487 12.5474 10.4092 12.2437 9.92105C11.6373 8.94649 10.5955 7.83097 9.25719 6.81688ZM9.60945 6.36354C10.9891 7.40897 12.0847 8.57408 12.7367 9.6219C13.0621 10.1449 13.2854 10.6521 13.3704 11.11C13.4553 11.5679 13.4064 12.009 13.1399 12.352C12.8734 12.6949 12.4546 12.8557 11.9847 12.8932C11.5148 12.9308 10.961 12.849 10.3652 12.6739C9.1715 12.3232 7.74831 11.5797 6.36865 10.5343C4.989 9.48888 3.89344 8.32376 3.24143 7.27594C2.91598 6.75292 2.69267 6.24578 2.60774 5.78783C2.52281 5.3299 2.57173 4.88886 2.83823 4.54589C3.10472 4.20292 3.52346 4.0421 3.99336 4.00459C4.46327 3.96708 5.01712 4.04883 5.61294 4.2239C6.80661 4.57464 8.2298 5.3181 9.60945 6.36354Z" fill="white"/>
<path d="M8 9.46088C8.5647 9.46088 9.02247 9.00882 9.02247 8.45117C9.02247 7.89353 8.5647 7.44146 8 7.44146C7.4353 7.44146 6.97753 7.89353 6.97753 8.45117C6.97753 9.00882 7.4353 9.46088 8 9.46088Z" fill="white"/>
</g>
</g>
<defs>
<clipPath id="clip0_552_363">
<rect width="16" height="16" fill="white" transform="translate(0 0.451172)"/>
</clipPath>
</defs>
</svg>
