<svg width="16" height="17" viewBox="0 0 16 17" fill="none" xmlns="http://www.w3.org/2000/svg">
<g id="React">
<path id="Vector" d="M8 9.82617C8.82843 9.82617 9.5 9.18258 9.5 8.38867C9.5 7.59476 8.82843 6.95117 8 6.95117C7.17157 6.95117 6.5 7.59476 6.5 8.38867C6.5 9.18258 7.17157 9.82617 8 9.82617Z" fill="#58C4DC"/>
<path id="Vector_2" fill-rule="evenodd" clip-rule="evenodd" d="M8.11002 5.32625C10.655 5.34356 13.4317 5.52898 15.3377 7.22637C15.3937 7.27631 15.4477 7.32824 15.5004 7.38183C15.9501 7.83955 16.1851 8.57856 15.8221 9.18675C15.0774 10.4354 13.412 10.98 11.7997 11.3152C9.38836 11.8166 6.86702 11.8206 4.45667 11.3791C3.06966 11.1248 1.65132 10.6791 0.665651 9.74666C0.281983 9.38381 -0.0460187 8.90645 0.00531492 8.37517C0.0886487 7.51565 0.914319 6.96406 1.60932 6.59056C3.53967 5.55328 5.89168 5.32126 8.11002 5.32625ZM7.92535 5.71673C5.51734 5.73304 2.911 5.8865 1.05165 7.42411C0.986653 7.4777 0.923986 7.53396 0.863652 7.59288C0.824652 7.63083 0.786985 7.67044 0.750652 7.71106C0.424317 8.07723 0.311983 8.66544 0.619985 9.10519C0.929986 9.5476 1.40066 9.86684 1.88532 10.1272C3.698 11.1005 5.84001 11.2733 7.92835 11.2806C10.0427 11.2883 12.223 11.0959 14.0907 10.1315C14.8347 9.747 15.6721 9.18242 15.6424 8.45539C15.6151 7.78829 14.9637 7.37617 14.4761 7.0819C14.3441 7.00234 14.2084 6.92877 14.0707 6.85953C12.2167 5.93177 10.044 5.71207 7.92535 5.71673Z" fill="#58C4DC"/>
<path id="Vector_3" fill-rule="evenodd" clip-rule="evenodd" d="M11.3757 1.32637C12.3108 1.35008 12.7952 2.47139 12.8592 3.29951C12.8719 3.46413 12.8766 3.62942 12.8746 3.79471C12.8725 3.97369 12.8628 4.15267 12.8471 4.33099C12.6499 6.53887 11.6392 8.64156 10.449 10.5833C9.28491 12.4826 7.86538 14.3766 5.9343 15.2569C5.29585 15.548 4.53654 15.7277 3.97141 15.4028C3.1967 14.9577 3.112 13.9165 3.12639 13.1268C3.13008 12.9328 3.1428 12.7388 3.16289 12.5454C3.46052 9.68707 4.91318 6.97931 6.73111 4.64654C7.79173 3.28548 9.05356 1.93544 10.6254 1.44658C10.8728 1.36945 11.0694 1.3227 11.3757 1.32637ZM11.3308 1.71773C10.233 1.73509 9.24741 2.54652 8.3746 3.38967C6.07994 5.6059 4.3889 8.55341 3.7086 11.6445C3.65604 11.8839 3.61184 12.125 3.57937 12.3678C3.55426 12.5558 3.53585 12.7448 3.52614 12.9344C3.51844 13.0854 3.51576 13.2366 3.52045 13.3879C3.52379 13.5061 3.53149 13.6243 3.54455 13.7419C3.55426 13.8317 3.56732 13.9212 3.58372 14.01C3.59611 14.0758 3.6105 14.1412 3.62724 14.2063C3.64097 14.2591 3.65637 14.3115 3.67378 14.3636C3.81071 14.7753 4.16358 15.1687 4.63731 15.1817C5.74246 15.2118 6.783 14.408 7.68259 13.5345C9.26181 12.0015 10.4386 10.0751 11.3579 8.05019C12.0998 6.41532 12.7785 4.63819 12.3995 2.8387C12.3851 2.77058 12.3683 2.70313 12.3493 2.63634C12.3335 2.58191 12.3158 2.52815 12.2964 2.47506C12.1491 2.07469 11.8025 1.71673 11.3308 1.71773Z" fill="#58C4DC"/>
<path id="Vector_4" fill-rule="evenodd" clip-rule="evenodd" d="M4.68173 1.3262C5.8817 1.34926 6.95945 2.15759 7.91633 3.06282C9.66242 4.71456 10.9503 6.81574 11.9273 9.0272C12.6842 10.7404 13.3805 12.6635 12.7617 14.4713C12.5667 15.041 12.0735 15.5623 11.4159 15.5757C10.2102 15.5997 9.09273 14.7296 8.12306 13.793C5.69046 11.4425 3.88445 8.3395 3.26561 5.04872C3.22116 4.81347 3.18581 4.57622 3.16157 4.33796C3.1417 4.14348 3.12925 3.948 3.12588 3.75252C3.12319 3.5948 3.12655 3.43708 3.13766 3.28002C3.14507 3.1751 3.15585 3.07084 3.17032 2.96692C3.18413 2.86934 3.20164 2.7721 3.22352 2.67586C3.238 2.61204 3.25416 2.54888 3.27268 2.48606C3.45415 1.87021 3.9262 1.32152 4.68173 1.3262ZM4.63628 1.71817C3.9336 1.73354 3.61206 2.5559 3.54742 3.13299C3.53429 3.25128 3.52621 3.37058 3.5225 3.48987C3.51779 3.64225 3.51981 3.79496 3.52755 3.94733C3.63799 6.15244 4.63123 8.28437 5.82985 10.2365C6.95844 12.0744 8.32137 13.9049 10.1961 14.8459C10.7375 15.1176 11.3954 15.3311 11.863 15.0744C12.4496 14.7523 12.5216 13.9848 12.5529 13.4127C12.5613 13.257 12.5623 13.1006 12.5573 12.9445C12.5512 12.7487 12.5357 12.5532 12.5125 12.3588C12.2964 10.5419 11.4856 8.82269 10.5543 7.19802C9.39542 5.17703 7.97559 3.16273 5.96621 2.11047C5.55006 1.8926 5.09957 1.71449 4.63628 1.71817Z" fill="#58C4DC"/>
</g>
</svg>
