<svg width="16" height="17" viewBox="0 0 16 17" fill="none" xmlns="http://www.w3.org/2000/svg">
<g id="SEO" clip-path="url(#clip0_552_356)">
<path id="Rectangle 2" d="M0 2.45117C0 1.3466 0.895431 0.451172 2 0.451172H14C15.1046 0.451172 16 1.3466 16 2.45117V14.4512C16 15.5557 15.1046 16.4512 14 16.4512H2C0.895431 16.4512 0 15.5557 0 14.4512V2.45117Z" fill="url(#paint0_linear_552_356)"/>
<g id="SEO_2">
<path d="M4.92158 9.91226C4.92158 10.2633 4.86525 10.5658 4.75259 10.8197C4.64506 11.0661 4.46583 11.2939 4.21492 11.5031C4.04593 11.6524 3.84878 11.7645 3.62347 11.8391C3.39816 11.9138 3.17028 11.9512 2.93985 11.9512C2.70429 11.9512 2.41241 11.8391 2.0642 11.6151C1.81328 11.4358 1.61357 11.223 1.46507 10.9765C1.32169 10.7301 1.25 10.4612 1.25 10.1699C1.25 9.96827 1.28072 9.82263 1.34217 9.73301C1.40362 9.63592 1.50348 9.58737 1.64174 9.58737C1.71343 9.58737 1.78768 9.63219 1.86449 9.72181C1.9413 9.80396 1.98739 9.88612 2.00275 9.96827C2.07444 10.2745 2.1999 10.5097 2.37913 10.674C2.55835 10.8309 2.7811 10.9093 3.04738 10.9093C3.35463 10.9093 3.61067 10.8272 3.8155 10.6628C4.02545 10.4985 4.13042 10.2782 4.13042 10.0019C4.13042 9.73301 4.01777 9.49402 3.79245 9.2849C3.56714 9.07578 3.33671 8.93014 3.10115 8.84799C2.76318 8.71355 2.46362 8.55298 2.20246 8.36627C1.93106 8.17208 1.72879 7.93309 1.59565 7.64929C1.46251 7.36548 1.39594 7.06674 1.39594 6.75306C1.39594 6.46179 1.46507 6.16678 1.60333 5.86803C1.74159 5.56182 1.90546 5.3415 2.09492 5.20707C2.19734 5.13238 2.37144 5.05396 2.61724 4.97181C2.86816 4.88219 3.04994 4.83738 3.1626 4.83738C3.3111 4.83738 3.47497 4.86352 3.65419 4.91579C3.83342 4.96807 3.97936 5.04276 4.09202 5.13985C4.31733 5.32657 4.48375 5.49461 4.59129 5.64398C4.69883 5.79335 4.75259 5.98006 4.75259 6.20412C4.75259 6.33855 4.71675 6.45805 4.64506 6.56261C4.57849 6.66717 4.46071 6.71945 4.29173 6.71945C4.25076 6.71945 4.20979 6.69331 4.16883 6.64103C4.12786 6.58875 4.07665 6.51033 4.01521 6.40577C3.93327 6.24893 3.8539 6.14437 3.77709 6.09209C3.70028 6.05475 3.58762 6.01367 3.43912 5.96886C3.29574 5.92405 3.16772 5.90164 3.05506 5.90164C2.93217 5.90164 2.80415 5.93899 2.67101 6.01367C2.53787 6.08836 2.42521 6.19665 2.33304 6.33855C2.24599 6.47299 2.20246 6.62983 2.20246 6.80907C2.20246 6.95844 2.24855 7.08914 2.34072 7.20117C2.43801 7.30573 2.55323 7.39162 2.68637 7.45884C2.83999 7.54846 3.00642 7.62688 3.18564 7.6941C3.4212 7.79866 3.61323 7.89575 3.76173 7.98537C3.91535 8.06752 4.06385 8.17208 4.20723 8.29905C4.45815 8.51564 4.63994 8.73969 4.75259 8.97122C4.86525 9.19528 4.92158 9.50896 4.92158 9.91226Z" fill="white"/>
<path d="M8.93515 10.4164C9.03244 10.4164 9.10413 10.4724 9.15022 10.5844C9.20143 10.689 9.22703 10.8047 9.22703 10.9317C9.22703 11.0886 9.20911 11.2006 9.17326 11.2678C9.14254 11.3275 9.08109 11.391 8.98891 11.4582C8.77384 11.6076 8.50756 11.7271 8.19008 11.8167C7.87259 11.9064 7.53206 11.9512 7.16849 11.9512C6.71274 11.9512 6.37733 11.8391 6.16226 11.6151C5.95231 11.391 5.82173 11.1222 5.77052 10.8085C5.72444 10.4873 5.70139 10.0691 5.70139 9.55377C5.70139 9.00109 5.71675 8.45962 5.74748 7.92936C5.7782 7.39162 5.83197 6.70825 5.90878 5.87924C5.94463 5.52075 6.04192 5.26308 6.20067 5.10624C6.35941 4.94193 6.53351 4.85978 6.72298 4.85978C6.88173 4.85978 7.14032 4.85231 7.49878 4.83738L8.16703 4.82617C8.44355 4.82617 8.64326 4.83737 8.76616 4.85978C8.91978 4.90459 9.03244 4.95687 9.10413 5.01662C9.18094 5.0689 9.21935 5.16226 9.21935 5.29669C9.21935 5.44606 9.1835 5.5917 9.11181 5.7336C9.04524 5.8755 8.94283 5.94646 8.80457 5.94646C8.64582 5.94646 8.41795 5.93152 8.12095 5.90164C7.82394 5.87177 7.60119 5.85683 7.45269 5.85683C7.32467 5.85683 7.19921 5.86804 7.07631 5.89044C6.93293 5.90538 6.83052 5.93152 6.76907 5.96886C6.70762 6.0062 6.67177 6.06969 6.66153 6.15931C6.58984 6.92857 6.554 7.49618 6.554 7.86214C6.67177 7.88454 6.78699 7.89575 6.89965 7.89575C7.04303 7.89575 7.19665 7.88454 7.36052 7.86214C7.52438 7.83973 7.62935 7.8248 7.67544 7.81733C7.94684 7.77998 8.17984 7.76131 8.37442 7.76131C8.48708 7.76131 8.57157 7.79119 8.6279 7.85094C8.68935 7.91068 8.72008 7.99284 8.72008 8.0974C8.72008 8.26171 8.68935 8.38867 8.6279 8.47829C8.57157 8.56792 8.46916 8.63513 8.32066 8.67995C8.14143 8.73223 7.91868 8.7733 7.6524 8.80318C7.39124 8.83305 7.1352 8.84799 6.88429 8.84799C6.79723 8.84799 6.6769 8.84052 6.52327 8.82558C6.50791 9.28116 6.50023 9.70314 6.50023 10.0915C6.50023 10.6218 6.74091 10.8869 7.22226 10.8869C7.47829 10.8869 7.6908 10.8608 7.85979 10.8085C8.02877 10.7562 8.22336 10.6815 8.44355 10.5844C8.64838 10.4724 8.81225 10.4164 8.93515 10.4164Z" fill="white"/>
<path d="M12.3591 11.9512C12.0211 11.9512 11.7113 11.8914 11.4297 11.7719C11.148 11.645 10.9176 11.462 10.7384 11.223C10.4106 10.7973 10.1802 10.3342 10.047 9.83384C9.91903 9.32598 9.85502 8.67995 9.85502 7.89575C9.85502 7.73144 9.87038 7.57833 9.90111 7.43643C9.93695 7.28706 9.98304 7.12275 10.0394 6.94351C10.0547 6.89123 10.0778 6.80907 10.1085 6.69704C10.1443 6.57755 10.1674 6.46925 10.1776 6.37216C10.2749 6.11076 10.4388 5.86057 10.6692 5.62157C10.9048 5.38258 11.1583 5.19213 11.4297 5.05023C11.7011 4.90086 11.9392 4.82617 12.144 4.82617C13.1323 4.82617 13.839 5.3191 14.264 6.30495C14.5047 6.88002 14.625 7.45884 14.625 8.04138C14.625 8.79571 14.5303 9.45668 14.3408 10.0243C14.1565 10.5919 13.9004 11.0325 13.5727 11.3462C13.3679 11.5255 13.1579 11.6711 12.9428 11.7831C12.7278 11.8952 12.5332 11.9512 12.3591 11.9512ZM10.6539 8.72476C10.6487 9.13553 10.7076 9.47535 10.8305 9.74421C10.9585 10.0056 11.1583 10.2932 11.4297 10.6068C11.6345 10.7189 11.7779 10.7935 11.8598 10.8309C11.9417 10.8682 12.0313 10.8869 12.1286 10.8869C12.4615 10.8869 12.7559 10.7861 13.012 10.5844C13.268 10.3828 13.4652 10.1064 13.6034 9.75542C13.7468 9.4044 13.8185 9.0123 13.8185 8.57912C13.8185 8.01151 13.775 7.5634 13.6879 7.23478C13.6009 6.90616 13.4447 6.61116 13.2194 6.34976C13.1016 6.20785 12.9505 6.10329 12.7662 6.03608C12.5869 5.96886 12.3949 5.93525 12.1901 5.93525C11.6985 5.93525 11.317 6.18918 11.0456 6.69704C10.7793 7.19744 10.6487 7.87334 10.6539 8.72476Z" fill="white"/>
</g>
</g>
<defs>
<linearGradient id="paint0_linear_552_356" x1="8" y1="0.451172" x2="8" y2="16.4512" gradientUnits="userSpaceOnUse">
<stop stop-color="#006783"/>
<stop offset="1" stop-color="#004153"/>
</linearGradient>
<clipPath id="clip0_552_356">
<rect width="16" height="16" fill="white" transform="translate(0 0.451172)"/>
</clipPath>
</defs>
</svg>
