<svg width="16" height="17" viewBox="0 0 16 17" fill="none" xmlns="http://www.w3.org/2000/svg">
<g id="TailwindCSS">
<path id="Vector" d="M4 6.86784C4.53333 4.75673 5.86667 3.70117 8 3.70117C11.2 3.70117 11.6 6.07617 13.2 6.47201C14.2667 6.73589 15.2 6.34006 16 5.2845C15.4667 7.39562 14.1333 8.45117 12 8.45117C8.8 8.45117 8.4 6.07617 6.8 5.68034C5.73333 5.41645 4.8 5.81228 4 6.86784ZM0 11.6178C0.533333 9.50673 1.86667 8.45117 4 8.45117C7.2 8.45117 7.6 10.8262 9.2 11.222C10.2667 11.4859 11.2 11.0901 12 10.0345C11.4667 12.1456 10.1333 13.2012 8 13.2012C4.8 13.2012 4.4 10.8262 2.8 10.4303C1.73333 10.1665 0.8 10.5623 0 11.6178Z" fill="#38BDF8"/>
</g>
</svg>
