<svg width="16" height="17" viewBox="0 0 16 17" fill="none" xmlns="http://www.w3.org/2000/svg">
<g id="Trello" clip-path="url(#clip0_552_405)">
<path id="Trello_2" fill-rule="evenodd" clip-rule="evenodd" d="M2 3.45117V12.4512C2 13.0037 2.4475 13.4512 3 13.4512H6C6.5525 13.4512 7 13.0037 7 12.4512V3.45117C7 2.89867 6.5525 2.45117 6 2.45117H3C2.4475 2.45117 2 2.89867 2 3.45117ZM9 3.45117V8.45117C9 9.00367 9.4475 9.45117 10 9.45117H13C13.5525 9.45117 14 9.00367 14 8.45117V3.45117C14 2.89867 13.5525 2.45117 13 2.45117H10C9.4475 2.45117 9 2.89867 9 3.45117ZM2 0.451172C0.8955 0.451172 0 1.34717 0 2.45117V14.4512C0 15.5557 0.896 16.4512 2 16.4512H14C15.1045 16.4512 16 15.5552 16 14.4512V2.45117C16 1.34667 15.104 0.451172 14 0.451172H2Z" fill="#0082CE"/>
<g id="Vector">
<path d="M2 3.45117C2 2.89889 2.44772 2.45117 3 2.45117H6C6.55228 2.45117 7 2.89889 7 3.45117V12.4512C7 13.0035 6.55228 13.4512 6 13.4512H3C2.44772 13.4512 2 13.0035 2 12.4512V3.45117Z" fill="white"/>
<path d="M9 3.45117C9 2.89889 9.44772 2.45117 10 2.45117H13C13.5523 2.45117 14 2.89889 14 3.45117V8.45117C14 9.00346 13.5523 9.45117 13 9.45117H10C9.44772 9.45117 9 9.00346 9 8.45117V3.45117Z" fill="white"/>
</g>
</g>
<defs>
<clipPath id="clip0_552_405">
<rect width="16" height="16" fill="white" transform="translate(0 0.451172)"/>
</clipPath>
</defs>
</svg>
