<svg width="16" height="17" viewBox="0 0 16 17" fill="none" xmlns="http://www.w3.org/2000/svg">
<g id="TypeScript" clip-path="url(#clip0_552_213)">
<path id="Vector" d="M0 8.45117V0.451172H16V16.4512H0" fill="#007ACC"/>
<path id="Vector_2" d="M3.5 8.44531V9.09486H5.56932V14.9926H7.03773V9.09486H9.10705V8.45726C9.10705 8.09861 9.10705 7.80771 9.09113 7.79974C9.09113 7.78779 7.82965 7.7838 6.29756 7.7838L3.51194 7.79576V8.44929L3.5 8.44531ZM12.8 7.77982C13.2059 7.87545 13.5163 8.05876 13.7948 8.34967C13.9421 8.50907 14.161 8.78801 14.1769 8.85974C14.1769 8.88365 13.4884 9.34989 13.0706 9.60892C13.0547 9.62087 12.991 9.55313 12.9273 9.44952C12.7204 9.15463 12.5095 9.02711 12.1792 9.0032C11.7017 8.97132 11.3833 9.22238 11.3833 9.6408C11.3833 9.76832 11.4072 9.84005 11.4549 9.94366C11.5624 10.1628 11.7613 10.2943 12.3782 10.5653C13.5163 11.0555 14.0097 11.3782 14.3082 11.8405C14.6464 12.3585 14.7221 13.1715 14.4952 13.7812C14.2405 14.4467 13.6198 14.897 12.7323 15.0444C12.4538 15.0922 11.8171 15.0843 11.5186 15.0325C10.8819 14.9129 10.273 14.5941 9.89896 14.1837C9.75172 14.0243 9.46918 13.5979 9.4851 13.57L9.63632 13.4743L10.2332 13.1276L10.6829 12.8646L10.7864 13.0041C10.9177 13.2113 11.2122 13.4903 11.3833 13.5859C11.9006 13.8529 12.5931 13.817 12.9353 13.5062C13.0825 13.3707 13.1462 13.2273 13.1462 13.028C13.1462 12.8447 13.1183 12.761 13.0268 12.6216C12.8995 12.4462 12.6448 12.3028 11.9285 11.984C11.1047 11.6333 10.7545 11.4101 10.4282 11.0674C10.2412 10.8602 10.0701 10.5374 9.99049 10.2704C9.9308 10.0393 9.9109 9.47343 9.96661 9.24629C10.1377 8.44929 10.7386 7.89139 11.5982 7.732C11.8767 7.67621 12.5334 7.70012 12.8079 7.77185L12.8 7.77982Z" fill="white"/>
</g>
<defs>
<clipPath id="clip0_552_213">
<rect width="16" height="16" fill="white" transform="translate(0 0.451172)"/>
</clipPath>
</defs>
</svg>
