<svg width="24" height="24" viewBox="0 0 128 128" fill="none" xmlns="http://www.w3.org/2000/svg">
<path d="M64.0885 125C54.3631 125 45.6606 123.663 37.9811 120.99C30.3312 118.347 23.8377 114.473 18.5006 109.367C13.1635 104.261 9.08651 98.0591 6.2697 90.7607C3.45288 83.4623 2.02965 75.1728 2 65.8922C2.02965 56.6416 3.45288 48.1868 6.2697 40.5281C9.08651 32.8392 13.2079 26.2016 18.634 20.6152C24.0897 14.9988 30.776 10.6588 38.6927 7.59527C46.6094 4.53176 55.6677 3 65.8675 3C75.0592 3 83.3466 4.27646 90.7296 6.82939C98.1422 9.35228 104.473 13.0766 109.721 18.0022C114.999 22.8978 119.031 28.9197 121.818 36.0679C124.635 43.2161 126.029 51.4156 125.999 60.6662C126.029 66.9734 125.376 72.4998 124.042 77.2452C122.708 81.9606 120.736 85.9402 118.127 89.1839C115.518 92.4276 112.315 94.9505 108.52 96.7526C104.754 98.5546 100.44 99.6809 95.5775 100.131C91.2188 100.552 88.0907 100.342 86.193 99.5007C84.2954 98.6598 83.0649 97.4584 82.5015 95.8966C81.9382 94.3348 81.4934 92.6829 81.1673 90.9409H80.6335C79.9516 92.8031 78.3653 94.4249 75.8746 95.8065C73.3839 97.1881 70.4485 98.2243 67.0684 98.9151C63.6882 99.6059 60.3228 99.8311 56.9723 99.5908C53.7107 99.3506 50.4492 98.5546 47.1876 97.2031C43.926 95.8515 40.9313 93.8242 38.2034 91.1211C35.5052 88.418 33.3407 84.949 31.71 80.7142C30.0792 76.4493 29.249 71.3284 29.2193 65.3516C29.249 59.3447 30.0643 54.2388 31.6655 50.034C33.2963 45.8291 35.3866 42.3602 37.9366 39.627C40.5162 36.8939 43.2885 34.7915 46.2536 33.3198C49.2483 31.8481 52.1096 30.872 54.8375 30.3914C58.4252 29.7307 61.9091 29.6556 65.2893 30.1662C68.6695 30.6467 71.5456 31.4727 73.9177 32.644C76.2897 33.7853 77.7574 35.0167 78.3208 36.3383H79.0324V31.2925H95.9333V77.4254C95.9926 79.2275 96.2891 80.4289 96.8228 81.0295C97.3862 81.6302 98.0385 81.9306 98.7797 81.9306C100.173 81.9306 101.478 81.1196 102.694 79.4978C103.939 77.8459 104.932 75.338 105.674 71.9742C106.444 68.5803 106.815 64.2703 106.785 59.0443C106.815 52.3166 105.955 46.7001 104.206 42.195C102.486 37.6598 100.173 34.0256 97.2676 31.2925C94.3618 28.5293 91.115 26.4569 87.5273 25.0753C83.9692 23.6637 80.3074 22.7326 76.5417 22.2821C72.7761 21.8016 69.218 21.5613 65.8675 21.5613C58.188 21.5613 51.5759 22.7326 46.0312 25.0753C40.5162 27.388 35.9796 30.5716 32.4216 34.6263C28.8635 38.6509 26.2246 43.2612 24.5048 48.4572C22.8148 53.6231 21.9549 59.0743 21.9252 64.8109C21.9549 71.5687 22.9185 77.5305 24.8162 82.6965C26.7435 87.8624 29.5455 92.1873 33.2221 95.6713C36.9285 99.1553 41.4798 101.783 46.8763 103.555C52.3023 105.357 58.5141 106.258 65.5117 106.258C69.0401 106.258 72.4648 106.048 75.7857 105.628C79.1065 105.237 82.1605 104.697 84.9477 104.006C87.7349 103.345 90.0921 102.594 92.0194 101.753L97.7123 117.972C95.8443 119.233 93.2202 120.39 89.8401 121.441C86.4895 122.522 82.6053 123.378 78.1874 124.009C73.7991 124.67 69.0994 125 64.0885 125ZM64.0885 81.0295C67.4983 81.0295 70.1669 80.3988 72.0942 79.1374C74.0511 77.8459 75.415 75.9837 76.1859 73.551C76.9865 71.0881 77.3423 68.1147 77.2534 64.6307C77.2237 61.9877 76.8827 59.5249 76.2304 57.2422C75.6077 54.9296 74.3328 53.0675 72.4055 51.6558C70.5078 50.2142 67.6169 49.4934 63.7327 49.4934C60.5007 49.4934 57.7581 50.079 55.5046 51.2504C53.2808 52.3917 51.5759 54.1036 50.3899 56.3863C49.2335 58.6388 48.6405 61.4471 48.6108 64.8109C48.6405 67.5741 49.1297 70.2021 50.0785 72.695C51.057 75.1578 52.6581 77.1701 54.8819 78.7319C57.1354 80.2637 60.2042 81.0295 64.0885 81.0295Z" fill="#fafafa"/>
</svg>
