<svg width="64" height="64" viewBox="0 0 64 64" fill="none" xmlns="http://www.w3.org/2000/svg">
<path d="M32.0442 62.5C27.1815 62.5 22.8303 61.8317 18.9905 60.4952C15.1656 59.1737 11.9189 57.2365 9.2503 54.6835C6.58174 52.1306 4.54325 49.0295 3.13485 45.3804C1.72644 41.7312 1.01483 37.5864 1 32.9461C1.01483 28.3208 1.72644 24.0934 3.13485 20.264C4.54325 16.4196 6.60397 13.1008 9.31701 10.3076C12.0449 7.49938 15.388 5.32939 19.3463 3.79763C23.3047 2.26588 27.8338 1.5 32.9338 1.5C37.5296 1.5 41.6733 2.13823 45.3648 3.41469C49.0711 4.67614 52.2363 6.53828 54.8604 9.00111C57.4993 11.4489 59.5156 14.4599 60.9091 18.034C62.3176 21.6081 63.0143 25.7078 62.9995 30.3331C63.0143 33.4867 62.6882 36.2499 62.021 38.6226C61.3539 40.9803 60.368 42.9701 59.0634 44.5919C57.7588 46.2138 56.1576 47.4753 54.26 48.3763C52.3772 49.2773 50.2201 49.8405 47.7887 50.0657C45.6094 50.276 44.0453 50.1709 43.0965 49.7504C42.1477 49.3299 41.5324 48.7292 41.2508 47.9483C40.9691 47.1674 40.7467 46.3415 40.5836 45.4705H40.3168C39.9758 46.4015 39.1826 47.2125 37.9373 47.9033C36.692 48.594 35.2243 49.1121 33.5342 49.4575C31.8441 49.8029 30.1614 49.9156 28.4862 49.7954C26.8554 49.6753 25.2246 49.2773 23.5938 48.6015C21.963 47.9258 20.4657 46.9121 19.1017 45.5606C17.7526 44.209 16.6704 42.4745 15.855 40.3571C15.0396 38.2246 14.6245 35.6642 14.6097 32.6758C14.6245 29.6723 15.0322 27.1194 15.8327 25.017C16.6481 22.9146 17.6933 21.1801 18.9683 19.8135C20.2581 18.4469 21.6443 17.3957 23.1268 16.6599C24.6242 15.9241 26.0548 15.436 27.4187 15.1957C29.2126 14.8653 30.9546 14.8278 32.6447 15.0831C34.3347 15.3234 35.7728 15.7363 36.9588 16.322C38.1449 16.8927 38.8787 17.5084 39.1604 18.1691H39.5162V15.6462H47.9666V38.7127C47.9963 39.6137 48.1445 40.2144 48.4114 40.5148C48.6931 40.8151 49.0192 40.9653 49.3899 40.9653C50.0867 40.9653 50.739 40.5598 51.3468 39.7489C51.9695 38.9229 52.4661 37.669 52.8368 35.9871C53.2222 34.2901 53.4075 32.1352 53.3927 29.5222C53.4075 26.1583 52.9776 23.3501 52.1029 21.0975C51.243 18.8299 50.0867 17.0128 48.6338 15.6462C47.1809 14.2646 45.5575 13.2285 43.7637 12.5377C41.9846 11.8319 40.1537 11.3663 38.2709 11.1411C36.3881 10.9008 34.609 10.7806 32.9338 10.7806C29.094 10.7806 25.7879 11.3663 23.0156 12.5377C20.2581 13.694 17.9898 15.2858 16.2108 17.3131C14.4317 19.3255 13.1123 21.6306 12.2524 24.2286C11.4074 26.8115 10.9774 29.5372 10.9626 32.4055C10.9774 35.7843 11.4593 38.7653 12.4081 41.3482C13.3717 43.9312 14.7727 46.0937 16.6111 47.8357C18.4642 49.5777 20.7399 50.8917 23.4381 51.7777C26.1512 52.6787 29.2571 53.1292 32.7559 53.1292C34.5201 53.1292 36.2324 53.0241 37.8928 52.8139C39.5533 52.6187 41.0803 52.3484 42.4739 52.003C43.8674 51.6726 45.046 51.2971 46.0097 50.8767L48.8562 58.986C47.9222 59.6167 46.6101 60.1949 44.92 60.7205C43.2448 61.2611 41.3027 61.6891 39.0937 62.0044C36.8995 62.3348 34.5497 62.5 32.0442 62.5ZM32.0442 40.5148C33.7491 40.5148 35.0834 40.1994 36.0471 39.5687C37.0255 38.9229 37.7075 37.9919 38.093 36.7755C38.4933 35.5441 38.6712 34.0574 38.6267 32.3154C38.6119 30.9938 38.4414 29.7624 38.1152 28.6211C37.8039 27.4648 37.1664 26.5337 36.2027 25.8279C35.2539 25.1071 33.8084 24.7467 31.8663 24.7467C30.2504 24.7467 28.879 25.0395 27.7523 25.6252C26.6404 26.1958 25.7879 27.0518 25.1949 28.1931C24.6167 29.3194 24.3202 30.7235 24.3054 32.4055C24.3202 33.7871 24.5649 35.1011 25.0393 36.3475C25.5285 37.5789 26.3291 38.5851 27.441 39.366C28.5677 40.1318 30.1021 40.5148 32.0442 40.5148Z" fill="white"/>
</svg>
