<svg width="24" height="24" viewBox="0 0 128 128" fill="none" xmlns="http://www.w3.org/2000/svg">
<path d="M2 125V38.7586H28.2584V125H2ZM16.5646 30.1782C12.6244 30.1782 9.2471 28.7991 6.43269 26.0409C3.61828 23.2827 2.21108 19.9655 2.21108 16.0891C2.21108 12.2127 3.61828 8.89545 6.43269 6.13727C9.2471 3.37909 12.6244 2 16.5646 2C20.5399 2 23.9172 3.37909 26.6964 6.13727C29.5108 8.89545 30.918 12.2127 30.918 16.0891C30.918 19.9655 29.5108 23.2827 26.6964 26.0409C23.9172 28.7991 20.5399 30.1782 16.5646 30.1782Z" fill="#fafafa"/>
<path d="M72.4402 75.2633V123.569H43.3111V37.6924H70.9626V54.0178H71.807C73.566 48.576 76.6618 44.3083 81.0945 41.2146C85.5624 38.121 90.769 36.5742 96.7144 36.5742C102.449 36.5742 107.427 37.9719 111.648 40.7674C115.905 43.5255 119.195 47.3274 121.516 52.1728C123.873 57.0183 125.034 62.5533 124.999 68.7778V123.569H95.8701V75.2633C95.9053 71.0142 94.8851 67.6783 92.8095 65.2555C90.769 62.8328 87.9194 61.6214 84.2607 61.6214C81.8685 61.6214 79.7752 62.1805 77.9811 63.2987C76.2221 64.3796 74.8676 65.9451 73.9178 67.9951C72.9679 70.0078 72.4754 72.4305 72.4402 75.2633Z" fill="#fafafa"/>
</svg>
