<svg width="64" height="64" viewBox="0 0 64 64" fill="none" xmlns="http://www.w3.org/2000/svg">
<path d="M1 62.5V19.3793H14.1292V62.5H1ZM8.28228 15.0891C6.31219 15.0891 4.62355 14.3995 3.21634 13.0205C1.80914 11.6414 1.10554 9.98273 1.10554 8.04455C1.10554 6.10636 1.80914 4.44773 3.21634 3.06863C4.62355 1.68954 6.31219 1 8.28228 1C10.27 1 11.9586 1.68954 13.3482 3.06863C14.7554 4.44773 15.459 6.10636 15.459 8.04455C15.459 9.98273 14.7554 11.6414 13.3482 13.0205C11.9586 14.3995 10.27 15.0891 8.28228 15.0891Z" fill="white"/>
<path d="M36.2201 37.6316V61.7844H21.6555V18.8462H35.4813V27.0089H35.9035C36.783 24.288 38.3309 22.1541 40.5472 20.6073C42.7812 19.0605 45.3845 18.2871 48.3572 18.2871C51.2244 18.2871 53.7134 18.986 55.8242 20.3837C57.9526 21.7628 59.5973 23.6637 60.7582 26.0864C61.9367 28.5091 62.5172 31.2766 62.4996 34.3889V61.7844H47.9351V37.6316C47.9526 35.5071 47.4425 33.8391 46.4047 32.6278C45.3845 31.4164 43.9597 30.8107 42.1303 30.8107C40.9342 30.8107 39.8876 31.0903 38.9905 31.6494C38.111 32.1898 37.4338 32.9725 36.9589 33.9975C36.4839 35.0039 36.2377 36.2153 36.2201 37.6316Z" fill="white"/>
</svg>
