<svg width="35" height="34" viewBox="0 0 35 34" fill="none" xmlns="http://www.w3.org/2000/svg">
<g id="Reino Unido" clip-path="url(#clip0_392_137)">
<g id="Vector">
<path d="M5.78309 28.6875H12.6092V24.1878L5.78309 28.6875Z" fill="#2A66B7"/>
<path d="M12.6092 6.375H5.88769L12.6092 10.8189V6.375Z" fill="#2A66B7"/>
<path d="M0.5 21.0083V25.2291L6.93385 21.0083H0.5Z" fill="#2A66B7"/>
<path d="M34.5 25.3034V21.0083H27.9877L34.5 25.3034Z" fill="#2A66B7"/>
<path d="M0.5 9.75906V14.0542H7.01231L0.5 9.75906Z" fill="#2A66B7"/>
<path d="M34.5 14.0542V9.83344L28.0661 14.0542H34.5Z" fill="#2A66B7"/>
<path d="M22.3908 28.6875H29.1123L22.3908 24.2436V28.6875Z" fill="#2A66B7"/>
<path d="M29.2169 6.375H22.3908V10.8747L29.2169 6.375Z" fill="#2A66B7"/>
<path d="M22.3908 21.0083V22.4586L31.8062 28.6875H33.5C34.0523 28.6875 34.5 28.2398 34.5 27.6875V27.0884L25.2938 21.0083H22.3908Z" fill="#DC4437"/>
<path d="M12.6092 14.0542V12.6039L3.19385 6.375H1.5C0.947715 6.375 0.5 6.82272 0.5 7.375V7.97406L9.70615 14.0542H12.6092Z" fill="#DC4437"/>
<path d="M9.62769 21.0083L0.5 26.9955V27.6875C0.5 28.2398 0.947715 28.6875 1.5 28.6875H3.06308L12.6092 22.4214V21.0083H9.62769Z" fill="#DC4437"/>
<path d="M31.9369 6.375L22.3908 12.6411V14.0542H25.3723L34.5 8.06703V7.375C34.5 6.82271 34.0523 6.375 33.5 6.375H31.9369Z" fill="#DC4437"/>
<path d="M20.56 6.375H14.44V15.3558H0.5V19.7067H14.44V28.6875H20.56V19.7067H34.5V15.3558H20.56V6.375Z" fill="#DC4437"/>
<path d="M25.3723 14.0542H22.3908V12.6411L31.9369 6.375H29.2169L22.3908 10.8747V6.375H20.56V15.3558H34.5L34.5 14.0542H28.0661L34.5 9.83344L34.5 8.06703L25.3723 14.0542Z" fill="white"/>
<path d="M12.6092 10.8189L5.88769 6.375H3.19385L12.6092 12.6039V14.0542H9.70615L0.5 7.97406V9.75906L7.01231 14.0542H0.5V15.3558H14.44V6.375H12.6092V10.8189Z" fill="white"/>
<path d="M20.56 19.7067V28.6875H22.3908V24.2436L29.1123 28.6875H31.8062L22.3908 22.4586V21.0083H25.2938L34.5 27.0884L34.5 25.3034L27.9877 21.0083H34.5L34.5 19.7067H20.56Z" fill="white"/>
<path d="M0.5 19.7067V21.0083H6.93385L0.5 25.2291V26.9955L9.62769 21.0083H12.6092V22.4214L3.06308 28.6875L5.78309 28.6875L12.6092 24.1878V28.6875L14.44 28.6875V19.7067H0.5Z" fill="white"/>
</g>
</g>
<defs>
<clipPath id="clip0_392_137">
<rect width="34" height="34" fill="white" transform="translate(0.5)"/>
</clipPath>
</defs>
</svg>
